<?xml version="1.0" encoding="utf-8"?>
<!-- Generator: Adobe Illustrator 22.1.0, SVG Export Plug-In . SVG Version: 6.00 Build 0)  -->
<svg version="1.1" id="Layer_1" xmlns="http://www.w3.org/2000/svg" xmlns:xlink="http://www.w3.org/1999/xlink" x="0px" y="0px"
	 viewBox="0 0 100 100" style="enable-background:new 0 0 100 100;" xml:space="preserve">
<style type="text/css">
	.st0{fill:#2051A0;}
	.st1{fill:#F2940C;}
	.st2{fill:#202124;}
	.st3{fill:#F3F4F3;}
	.st4{fill:#FFFFFF;}
</style>
<g>
	<path class="st0" d="M50.1,99c-3.1-0.2-6.1-0.5-8.7-2c-0.8-0.4-1.5-0.9-2.1-1.6c-1.7-1.8-1.7-3.8,0.1-5.5c1.8-1.7,4.1-2.5,6.5-2.9
		c0.5-0.1,0.9,0.1,1.2,0.5c0.8,1.1,1.6,2.1,2.4,3.2c0.5,0.6,0.9,0.6,1.4,0c0.8-1.1,1.6-2.1,2.4-3.2c0.3-0.4,0.6-0.6,1.2-0.5
		c2.4,0.4,4.7,1.2,6.5,2.9c2,1.9,2,4.1-0.1,5.9c-2.3,1.9-5,2.7-7.9,3C51.8,98.9,50.8,98.9,50.1,99z"/>
	<path class="st1" d="M74.8,48.1c0.1,6-1.9,10.9-4.5,15.6c-3,5.3-6.7,10-10.6,14.6c-2.3,2.8-4.6,5.5-6.9,8.3c-0.8,1-1.5,2-2.2,3
		c-0.4,0.5-0.5,0.7-1,0c-4.6-6.2-9.8-11.8-14.4-18c-3.9-5.2-7.4-10.6-9-16.9c-3.8-14.4,6.5-29.3,21.4-30.7
		c9.6-0.9,17.3,2.7,22.9,10.5C73.3,38.8,74.9,43.5,74.8,48.1z M50,37.5c-6.6,0-11.8,5.2-11.8,11.9C38.2,55.8,43.5,61,50,61
		c6.5,0,11.8-5.2,11.8-11.6C61.9,42.8,56.6,37.5,50,37.5z"/>
	<path class="st2" d="M50,100c-3.1,0-6.1-0.5-8.9-2c-0.1-0.1-0.3-0.2-0.4-0.2c-1.9-1.2-3.6-2.7-3.5-5.2c0.1-2.4,1.7-3.8,3.7-4.9
		c1.2-0.7,2.4-1.2,3.7-1.4c0.9-0.2,0.8-0.4,0.4-1c-2.4-2.9-4.9-5.9-7.3-8.8c-4-5-8-10.1-10.5-16c-4.3-10-3.5-19.5,3.6-28
		c4.8-5.7,11.1-8.6,18.6-8.9c12.1-0.5,23.4,8.1,25.8,20.8c1.1,5.6,0.1,11-2.2,16.1c-2.8,6.4-7.1,11.8-11.5,17.2
		c-2.1,2.5-4.1,5-6.2,7.5c-0.6,0.7-0.8,1,0.4,1.2c2.1,0.5,4,1.3,5.6,2.7c2.7,2.5,2.5,5.6-0.4,7.8c-3,2.3-6.5,3.1-10.2,3.2
		C50.5,100,50.2,100,50,100z M74.2,48.3c0.1-4.5-1.4-9.1-4.3-13.1c-5.5-7.7-13-11.2-22.4-10.3c-14.6,1.3-24.7,15.9-20.9,30
		c1.7,6.2,5.1,11.5,8.9,16.5C39.9,77.4,45,83,49.5,89c0.5,0.6,0.6,0.5,1,0c0.7-1,1.4-2,2.2-2.9c2.2-2.7,4.5-5.4,6.8-8.1
		c3.8-4.5,7.5-9.1,10.4-14.3C72.4,59,74.3,54.2,74.2,48.3z M50.1,98.8c0.8-0.1,1.7-0.1,2.6-0.2c2.8-0.3,5.4-1.1,7.6-2.9
		c2-1.7,2.1-3.8,0.1-5.6c-1.8-1.6-4-2.3-6.3-2.7c-0.5-0.1-0.8,0.1-1.1,0.5c-0.8,1.1-1.6,2.1-2.3,3.1c-0.5,0.6-0.9,0.6-1.4,0
		c-0.8-1-1.6-2.1-2.4-3.1c-0.3-0.4-0.6-0.6-1.1-0.5c-2.3,0.4-4.5,1.2-6.2,2.8c-1.7,1.6-1.7,3.6-0.1,5.3c0.6,0.6,1.3,1.1,2,1.5
		C44.2,98.3,47,98.6,50.1,98.8z"/>
	<path class="st2" d="M63.7,3c0,0.4-0.2,0.6-0.3,0.9c-1.7,2.9-3.4,5.8-5,8.7c-0.3,0.5-0.6,0.9-1.1,0.6c-0.6-0.3-0.3-0.8,0-1.3
		C58.9,9,60.6,6,62.3,3.1c0.2-0.4,0.4-0.9,1-0.7C63.6,2.5,63.7,2.7,63.7,3z"/>
	<path class="st2" d="M36.9,2.3c0.4,0.1,0.6,0.3,0.8,0.7c1.7,3,3.5,6,5.2,9c0.2,0.4,0.4,0.9-0.1,1.2c-0.5,0.3-0.8,0-1.1-0.5
		c-1.7-3-3.5-6-5.2-9C36.2,3.1,36.1,2.6,36.9,2.3z"/>
	<path class="st2" d="M26.6,10.3c0.2,0.1,0.4,0.2,0.7,0.4c2.9,1.7,5.7,3.3,8.6,5c0.5,0.3,1.1,0.6,0.7,1.3c-0.4,0.7-0.9,0.2-1.4-0.1
		c-2.9-1.7-5.8-3.4-8.7-5c-0.4-0.2-0.8-0.5-0.6-1C25.9,10.4,26.2,10.3,26.6,10.3z"/>
	<path class="st2" d="M64.1,17.2c-0.4,0-0.6-0.1-0.7-0.5c-0.1-0.4,0.1-0.7,0.4-0.9c1.2-0.7,2.3-1.3,3.5-2c1.9-1.1,3.8-2.2,5.7-3.3
		c0.4-0.2,0.8-0.5,1.2,0c0.3,0.5,0,0.9-0.5,1.2c-3,1.7-6,3.4-8.9,5.1C64.5,17,64.2,17.1,64.1,17.2z"/>
	<path class="st2" d="M50.7,6.2c0,1.7,0,3.4,0,5.1c0,0.5,0,1.1-0.6,1.1c-0.7,0-0.7-0.6-0.7-1.1c0-3.5,0-6.9,0-10.4
		c0-0.5,0-1.1,0.7-1c0.7,0,0.6,0.6,0.6,1.1C50.7,2.8,50.7,4.5,50.7,6.2z"/>
	<path class="st2" d="M50.7,17c0,0.5,0,1,0,1.4c0,0.4-0.2,0.7-0.7,0.7c-0.4,0-0.6-0.3-0.6-0.7c0-1,0-2,0-3c0-0.3,0.2-0.6,0.6-0.6
		c0.5,0,0.7,0.2,0.7,0.6C50.7,16,50.7,16.5,50.7,17C50.7,17,50.7,17,50.7,17z"/>
	<path class="st2" d="M46.6,18.4c0,0.3-0.1,0.6-0.4,0.7c-0.3,0.1-0.6,0-0.7-0.2c-0.5-0.9-1.1-1.8-1.6-2.7c-0.1-0.3-0.1-0.6,0.3-0.8
		c0.3-0.1,0.5-0.1,0.7,0.1C45,15.5,46.6,18.1,46.6,18.4z"/>
	<path class="st2" d="M61.6,18.2c0,0.4-0.2,0.6-0.5,0.8c-0.7,0.4-1.5,0.9-2.2,1.3c-0.4,0.2-0.8,0.3-1.1-0.1c-0.2-0.4-0.1-0.8,0.3-1
		c0.8-0.5,1.6-0.9,2.4-1.4C61.2,17.4,61.5,17.7,61.6,18.2z"/>
	<path class="st2" d="M54.2,19.1c-0.6-0.1-0.9-0.4-0.6-0.9c0.5-1,1.1-1.9,1.7-2.8c0.1-0.2,0.4-0.3,0.6-0.1c0.3,0.1,0.5,0.4,0.4,0.7
		c-0.4,1.1-1,2.1-1.7,3C54.4,19.1,54.3,19.1,54.2,19.1z"/>
	<path class="st2" d="M39.1,17.6c0.3,0,3.1,1.7,3.1,1.9c0,0.2,0,0.5-0.1,0.7c-0.1,0.2-0.4,0.3-0.6,0.2c-1-0.5-1.9-1-2.8-1.6
		c-0.3-0.2-0.3-0.5-0.2-0.8C38.6,17.7,38.8,17.6,39.1,17.6z"/>
	<path class="st2" d="M50,37.5c6.6,0,11.9,5.2,11.9,11.8C61.8,55.8,56.5,61,50,61c-6.5,0-11.9-5.2-11.9-11.6
		C38.2,42.8,43.4,37.6,50,37.5z M60.5,49.3c0-5.8-4.6-10.4-10.4-10.4c-5.9,0-10.5,4.6-10.5,10.5c0,5.6,4.7,10.3,10.5,10.3
		C56.1,59.6,60.2,55,60.5,49.3z"/>
	<path class="st3" d="M60.5,49.3C60.2,55,56.1,59.6,50,59.6c-5.8,0.1-10.5-4.6-10.5-10.3c0-5.9,4.6-10.5,10.5-10.5
		C55.9,38.9,60.5,43.5,60.5,49.3z"/>
</g>
</svg>
