<svg xmlns="http://www.w3.org/2000/svg" version="1.1" xmlns:xlink="http://www.w3.org/1999/xlink" xmlns:svgjs="http://svgjs.com/svgjs" width="50" height="50" x="0" y="0" viewBox="0 0 60 60" style="enable-background:new 0 0 512 512" xml:space="preserve" class=""><g><path d="m55 47.017v2.6a3.48 3.48 0 0 1 -1.022 2.448l-5.03 5.03a6.394 6.394 0 0 1 -4.323 1.887c-4.84.179-15.641-1.3-28.981-14.631s-14.81-24.136-14.631-28.976a6.4 6.4 0 0 1 1.887-4.323l5.03-5.03a3.48 3.48 0 0 1 2.448-1.022h2.605a3.462 3.462 0 0 1 3.2 2.156l3.8 9.207a3.481 3.481 0 0 1 -.752 3.773l-3.582 3.571s.8 5.558 7.95 12.7 12.7 7.95 12.7 7.95l3.571-3.582a3.481 3.481 0 0 1 3.773-.752l9.207 3.8a3.462 3.462 0 0 1 2.15 3.194z" fill="#5edd60" data-original="#5edd60" class=""></path><path d="m44.562 29.633a3.055 3.055 0 0 1 -3.822-2.085 12.527 12.527 0 0 0 -8.279-8.279 3.081 3.081 0 1 1 1.726-5.916 18.788 18.788 0 0 1 12.47 12.459 3.083 3.083 0 0 1 -2.095 3.821z" fill="#3a547c" data-original="#3a547c" class=""></path><path d="m56.241 29.982a3.068 3.068 0 0 1 -2.507-.883 3.111 3.111 0 0 1 -.883-1.859 22.59 22.59 0 0 0 -20.092-20.091 3.084 3.084 0 0 1 .647-6.133 28.781 28.781 0 0 1 25.577 25.584 3.071 3.071 0 0 1 -2.742 3.382z" fill="#3a547c" data-original="#3a547c" class=""></path><g fill="#262626"><path d="m53.225 42.893-9.21-3.8a4.467 4.467 0 0 0 -4.859.972l-3.184 3.194c-1.441-.374-6.054-1.937-11.671-7.564s-7.19-10.234-7.563-11.67l3.2-3.185a4.465 4.465 0 0 0 .97-4.861l-3.795-9.2a4.446 4.446 0 0 0 -4.131-2.779h-2.6a4.5 4.5 0 0 0 -3.159 1.314l-5.028 5.028a7.358 7.358 0 0 0 -2.18 5 23.868 23.868 0 0 0 .337 4.826 1 1 0 1 0 1.972-.328 22.025 22.025 0 0 1 -.311-4.427 5.377 5.377 0 0 1 1.593-3.65l5.031-5.03a2.486 2.486 0 0 1 1.741-.733h2.6a2.456 2.456 0 0 1 2.276 1.537l3.8 9.2a2.468 2.468 0 0 1 -.533 2.687l-3.583 3.576a1 1 0 0 0 -.284.85c.035.241.929 5.971 8.232 13.264s13.024 8.2 13.264 8.234a.991.991 0 0 0 .85-.286l3.57-3.581a2.469 2.469 0 0 1 2.685-.535l9.208 3.8a2.458 2.458 0 0 1 1.537 2.272v2.6a2.483 2.483 0 0 1 -.729 1.741l-5.033 5.041a5.372 5.372 0 0 1 -3.65 1.591c-5.021.175-15.32-1.431-28.236-14.338-6.623-6.632-11.029-13.343-13.096-19.953a1 1 0 1 0 -1.908.6c2.164 6.918 6.736 13.9 13.59 20.763 12.824 12.815 23.362 14.937 28.935 14.937.273 0 .536-.005.786-.015a7.357 7.357 0 0 0 5-2.177l5.031-5.031a4.5 4.5 0 0 0 1.31-3.155v-2.6a4.447 4.447 0 0 0 -2.775-4.129z" fill="#262626" data-original="#262626" class=""></path><path d="m32.181 20.229a11.452 11.452 0 0 1 7.6 7.588 4.049 4.049 0 0 0 3.907 2.943 4.094 4.094 0 0 0 3.933-5.23 19.81 19.81 0 0 0 -13.151-13.136 4.04 4.04 0 0 0 -3.107.336 4.082 4.082 0 0 0 -1.956 2.434 4.03 4.03 0 0 0 .337 3.107 4.077 4.077 0 0 0 2.437 1.958zm-.856-4.5a2.089 2.089 0 0 1 1-1.248 2.049 2.049 0 0 1 .99-.256 2.08 2.08 0 0 1 .588.085 17.768 17.768 0 0 1 11.797 11.78 2.082 2.082 0 0 1 -1.413 2.582 2.057 2.057 0 0 1 -2.58-1.408 13.5 13.5 0 0 0 -8.955-8.956 2.1 2.1 0 0 1 -1.248-1 2.047 2.047 0 0 1 -.179-1.577z" fill="#262626" data-original="#262626" class=""></path><path d="m51.423 8.579a29.809 29.809 0 0 0 -17.914-8.558 4.083 4.083 0 0 0 -.854 8.122 21.593 21.593 0 0 1 19.2 19.21 4.141 4.141 0 0 0 1.17 2.453 4.062 4.062 0 0 0 2.883 1.194 4.279 4.279 0 0 0 .437-.023 4.084 4.084 0 0 0 3.634-4.477 29.8 29.8 0 0 0 -8.556-17.921zm4.716 20.408a2.074 2.074 0 0 1 -2.291-1.852 23.6 23.6 0 0 0 -20.986-20.982 2.083 2.083 0 0 1 .223-4.153c.071 0 .144 0 .216.011a27.777 27.777 0 0 1 24.687 24.694 2.078 2.078 0 0 1 -1.849 2.282z" fill="#262626" data-original="#262626" class="" height="50" width="50"></path></g></g></svg>