<?xml version="1.0" encoding="utf-8"?>
<!-- Generator: Adobe Illustrator 22.1.0, SVG Export Plug-In . SVG Version: 6.00 Build 0)  -->
<svg version="1.1" id="Layer_1" xmlns="http://www.w3.org/2000/svg" xmlns:xlink="http://www.w3.org/1999/xlink" x="0px" y="0px"
	 viewBox="0 0 100 100" style="enable-background:new 0 0 100 100;" xml:space="preserve">
<style type="text/css">
	.st0{fill:#EDEDED;}
	.st1{fill:#CECECE;}
	.st2{fill:#FFFFFF;}
	.st3{fill:#2E373D;}
	.st4{fill:#E6E6E6;}
	.st5{fill:#DD800C;}
	.st6{fill:#F2940C;}
	.st7{fill:#DEDEDE;}
	.st8{fill:#D5D5D5;}
	.st9{fill:#B4B4B4;}
	.st10{fill:#A3A3A3;}
	.st11{fill:#DCDCDC;}
	.st12{fill:#CDCDCD;}
	.st13{fill:none;}
	.st14{fill:#EBBF00;}
	.st15{fill:#EDF4FC;}
	.st16{fill:#70D6F9;}
	.st17{fill:#D1956D;}
	.st18{fill:#F5C84C;}
	.st19{fill:#F9D0B4;}
	.st20{fill:#9BE5F9;}
	.st21{fill:#754E34;}
	.st22{fill:#87D147;}
	.st23{fill:#FC657E;}
	.st24{fill:#2051A0;}
</style>
<g>
	<g>
		<path class="st6" d="M24.1,47.2l0-11.5c-2.2-1-4.7-1-6.9,0v11.5C19.4,46.4,21.9,46.4,24.1,47.2z M21.7,45c-0.7-0.1-1.5-0.1-2.2,0
			c0,0-0.1,0-0.1,0c-0.5,0-0.9-0.3-0.9-0.8c-0.1-0.5,0.3-1,0.8-1.1c0.9-0.1,1.8-0.1,2.7,0c0.5,0.1,0.9,0.5,0.8,1.1
			C22.6,44.8,22.2,45.1,21.7,45z M19.2,36.8c0.9-0.1,1.8-0.1,2.7,0c0.5,0.1,0.9,0.5,0.8,1.1c-0.1,0.5-0.5,0.9-1.1,0.8
			c-0.7-0.1-1.5-0.1-2.2,0c0,0-0.1,0-0.1,0c-0.5,0-0.9-0.3-0.9-0.8C18.4,37.3,18.7,36.9,19.2,36.8z M19.2,40c0.9-0.1,1.8-0.1,2.7,0
			c0.5,0.1,0.9,0.5,0.8,1.1c-0.1,0.5-0.5,0.9-1.1,0.8c-0.7-0.1-1.5-0.1-2.2,0c0,0-0.1,0-0.1,0c-0.5,0-0.9-0.3-0.9-0.8
			C18.4,40.5,18.7,40.1,19.2,40z"/>
		<path class="st6" d="M8.4,35.7l0,11.5c1.1-0.4,2.3-0.6,3.5-0.6c1.2,0,2.3,0.2,3.5,0.6V35.7C13.1,34.8,10.6,34.7,8.4,35.7z
			 M10.4,36.8c0.9-0.1,1.8-0.1,2.7,0c0.5,0.1,0.9,0.5,0.8,1.1c-0.1,0.5-0.5,0.8-0.9,0.8c0,0-0.1,0-0.1,0c-0.7-0.1-1.4-0.1-2.2,0
			c-0.5,0.1-1-0.3-1.1-0.8C9.6,37.3,9.9,36.9,10.4,36.8z M13,45.1c0,0-0.1,0-0.1,0c-0.7-0.1-1.4-0.1-2.2,0c-0.5,0.1-1-0.3-1.1-0.8
			c-0.1-0.5,0.3-1,0.8-1.1c0.9-0.1,1.8-0.1,2.7,0c0.5,0.1,0.9,0.5,0.8,1.1C13.8,44.7,13.4,45.1,13,45.1z M13,41.9c0,0-0.1,0-0.1,0
			c-0.7-0.1-1.4-0.1-2.2,0c-0.5,0.1-1-0.3-1.1-0.8c-0.1-0.5,0.3-1,0.8-1.1c0.9-0.1,1.8-0.1,2.7,0c0.5,0.1,0.9,0.5,0.8,1.1
			C13.8,41.5,13.4,41.9,13,41.9z"/>
		<path class="st6" d="M25.3,49c-0.4,0.3-1,0.3-1.4,0.2c-2.3-0.9-4.9-0.8-7.1,0.4c-0.1,0.1-0.3,0.1-0.4,0.1c-0.2,0-0.3,0-0.4-0.1
			c-2.2-1.2-4.8-1.3-7.1-0.4c-0.5,0.2-1,0.1-1.4-0.2c-0.5-0.3-0.8-0.9-0.8-1.5V37.3H5v13.7h22.5V37.3H26v10.2
			C26,48.1,25.7,48.6,25.3,49z"/>
	</g>
	<g>
		<path class="st6" d="M34.9,9.4c0-0.3,0-0.6-0.1-1c0,0,0,0,0,0c0-0.1-0.1-0.2-0.2-0.2H20.5c-0.1,0-0.2,0.1-0.2,0.2
			c0,0.3-0.1,0.6-0.1,1c0,4.1,3.3,7.5,7.3,7.5S34.9,13.6,34.9,9.4z"/>
		<path class="st6" d="M23.6,20.7h8c1.1,0,1.9-0.8,2-1.9h-6h-6C21.7,19.8,22.5,20.7,23.6,20.7z"/>
	</g>
	<g>
		<path class="st6" d="M71.1,14.3l1.6-1.6L70.9,11l-1.4,1.4c0,0.1,0,0.2,0.1,0.3L71.1,14.3z"/>
		
			<rect x="64.5" y="11.5" transform="matrix(0.7071 -0.7071 0.7071 0.7071 10.1846 50.2333)" class="st6" width="2.5" height="2.6"/>
		<path class="st6" d="M61.2,21.6c-0.2,0.2-0.2,0.6,0,0.8c0.2,0.2,0.6,0.2,0.8,0l4.9-4.6l-1.2-1.1L61.2,21.6z"/>
		<path class="st6" d="M74.6,22.5c0.2,0.2,0.6,0.2,0.8,0c0.2-0.2,0.2-0.6,0-0.8l-6.8-7.2l-1.3,1.3L74.6,22.5z"/>
		<path class="st6" d="M78.9,5.1c-0.9,0.4-1.8,0.3-2.8,0.3C75,5.4,74,5.4,73.4,6c-1.2,1.2-1.5,2.7-1.6,3.3l2.5,2.5
			C78.7,11.1,79.1,7.9,78.9,5.1z"/>
		<path class="st6" d="M64.7,9.3c-0.1-0.7-0.4-2.2-1.6-3.3c-0.6-0.6-1.6-0.6-2.7-0.5c-0.9,0-1.9,0.1-2.8-0.3c-0.2,2.8,0.2,6,4.6,6.7
			L64.7,9.3z"/>
	</g>
	<g>
		<path class="st6" d="M50.6,63.3C50.6,63.3,50.6,63.3,50.6,63.3l3.2-3.2c-0.2-0.5-0.3-1-0.3-1.5v-0.1c-1.1,0.4-2.3,0.6-3.5,0.6
			s-2.4-0.2-3.5-0.6v0.1c0,0.5-0.1,1-0.3,1.5l3.2,3.2c0,0,0,0,0,0c0.1,0.1,0.1,0.1,0.1,0.2h0.8C50.5,63.4,50.6,63.3,50.6,63.3z"/>
		<path class="st6" d="M73,87.6c0.8,1.2,2.4,1.5,3.7,0.7l10.7-7c1-0.6,2-1.2,3.1-1.6l3.6-1.5c0.7-0.3,1.1-1.1,0.9-1.9L93.9,73
			c0,0,0-0.1,0-0.1c-0.2-0.5-0.7-0.7-0.9-0.8c-0.5-0.1-1,0-1.3,0.3l-0.5,0.4c-0.5,0.5-1.3,0.7-2,0.5c-0.7-0.2-1.3-0.7-1.5-1.3
			c0-0.1,0-0.1,0-0.2c0-0.1-0.1-0.1-0.1-0.1c0,0-0.1,0-0.2,0c-0.5,0.2-0.8,0.8-0.8,1.3l0.2,1.7c0.2,1.3-0.6,2.6-1.8,3.2L84,78.3
			c-1.2,0.6-3.3,1.5-6.6,3.2c-0.6,0.3-1.4,0.1-1.8-0.5l-1.2-1.7l-4.9,3.7L73,87.6z"/>
		<path class="st6" d="M22.8,81.4c-3.4-1.6-5.4-2.6-6.6-3.2l-0.8-0.4c-1.2-0.6-2-1.9-1.8-3.2l0.2-1.7c0.1-0.6-0.2-1.1-0.8-1.3
			c-0.1,0-0.1,0-0.2,0c0,0-0.1,0.1-0.1,0.1c0,0.1,0,0.1,0,0.2c-0.3,0.7-0.8,1.2-1.5,1.3c-0.7,0.2-1.4,0-2-0.5l-0.5-0.4
			c-0.4-0.3-0.9-0.4-1.3-0.3c-0.3,0.1-0.7,0.2-0.9,0.8c0,0,0,0.1,0,0.1l-1.1,3.4C5,77.2,5.4,78,6.1,78.3l3.6,1.5
			c1.1,0.4,2.1,1,3.1,1.6l10.7,7c1.2,0.8,2.8,0.5,3.7-0.7l3.4-4.7l-4.9-3.7L24.6,81C24.2,81.5,23.4,81.7,22.8,81.4z"/>
		<path class="st6" d="M53.5,67.8c-0.4,0-0.9-0.2-1.2-0.5l-1.7-1.7c-0.1-0.1-0.2-0.2-0.2-0.3h-0.6c-0.1,0.1-0.1,0.2-0.2,0.3
			l-1.7,1.7c-0.3,0.3-0.8,0.5-1.2,0.5c-0.4,0-0.9-0.2-1.2-0.5l-3.7-3.7c-1.1,0.4-2,0.6-3.2,0.9c-0.6,0.1-1.2,0.3-2,0.5
			c-1.4,0.3-2.7,1-3.7,1.9c-0.5,0.4-0.9,0.9-1.3,1.4L25.9,77l6.7,5.1l3.7-4.9c0.2-0.3,0.7-0.5,1-0.3c0.4,0.1,0.6,0.5,0.6,0.9v17.1
			l24.2,0l0-17.1c0-0.4,0.3-0.8,0.6-0.9c0.4-0.1,0.8,0,1,0.3l3.7,4.9l6.7-5.1l-5.6-8.6c-0.4-0.5-0.8-1-1.3-1.4
			c-1.1-0.9-2.3-1.6-3.7-1.9c-0.8-0.2-1.4-0.4-2-0.5c-1.1-0.3-2.1-0.5-3.2-0.9l-3.7,3.7C54.4,67.7,54,67.8,53.5,67.8z"/>
		<rect x="44.5" y="60.8" transform="matrix(0.7071 -0.7071 0.7071 0.7071 -31.4705 50.7856)" class="st6" width="2" height="5.1"/>
		<rect x="52.1" y="62.4" transform="matrix(0.7071 -0.7071 0.7071 0.7071 -28.8239 57.1738)" class="st6" width="5.1" height="2"/>
		<path class="st6" d="M58.8,48.5v-8.3c-3.6-0.2-5.7-1.5-6.8-2.4c-3.5,4.1-8.5,3.8-10.6,3.5v7.2c0,4.8,3.9,8.7,8.7,8.7
			S58.8,53.3,58.8,48.5z M53.9,43.9c0.8,0,1.4,0.6,1.4,1.4c0,0.8-0.6,1.4-1.4,1.4c-0.8,0-1.4-0.6-1.4-1.4
			C52.5,44.5,53.2,43.9,53.9,43.9z M44.9,45.3c0-0.8,0.6-1.4,1.4-1.4c0.8,0,1.4,0.6,1.4,1.4c0,0.8-0.6,1.4-1.4,1.4
			C45.5,46.6,44.9,46,44.9,45.3z M46.6,51.5c-0.3-0.4-0.3-1,0.1-1.3c0.4-0.3,1-0.3,1.3,0.1c0.5,0.6,1.3,0.9,2.2,0.9s1.7-0.3,2.2-0.9
			c0.3-0.4,0.9-0.4,1.3-0.1c0.4,0.3,0.4,0.9,0.1,1.3c-0.8,1-2.2,1.6-3.6,1.6C48.8,53.1,47.4,52.5,46.6,51.5z"/>
		<path class="st6" d="M40.1,39.6c0.3-0.3,0.8-0.4,1.2-0.3c1.8,0.4,6.4,0.8,9.5-3.1c0.3-0.3,0.6-0.5,1-0.5c0.4,0,0.8,0.1,1.1,0.4
			c0.6,0.6,2.5,2.1,6.3,2.2c0.8,0,1.4,0.6,1.4,1.4c0,0.1,0,0.1,0,0.2v0.3c0.5,0,1,0.1,1.5,0.3v-5.5c0-2.5-2-4.6-4.6-4.6
			c-0.8,0-1.6,0.2-2.3,0.6c-0.2,0.1-0.5,0.2-0.7,0.1c-0.2-0.1-0.4-0.2-0.6-0.4c-0.8-1.4-2.3-2.2-3.9-2.2h-2.8c-5,0-9,4-9,9v2.9
			c0.4-0.1,0.9-0.2,1.3-0.3C39.7,40,39.9,39.8,40.1,39.6z"/>
		<path class="st6" d="M63.4,45.2c0-1.6-1.2-2.9-2.8-3v6.1C62.2,48,63.4,46.8,63.4,45.2z"/>
		<path class="st6" d="M36.8,45.2c0,1.6,1.2,2.9,2.8,3v-6.1C38,42.3,36.8,43.6,36.8,45.2z"/>
	</g>
	<g>
		<path class="st6" d="M77.4,35.9v4.4c0-0.5,0.4-0.9,0.9-0.9v-3.5l11.2-2.4V37c0.5,0,0.9,0.4,0.9,0.9v0c0,0,0,0,0,0v-4.4
			c0-0.3-0.1-0.6-0.3-0.7c-0.2-0.2-0.5-0.2-0.8-0.2L78.2,35C77.8,35.1,77.4,35.5,77.4,35.9z"/>
		<path class="st6" d="M79.3,40.1c0,0.1,0,0.1,0,0.2v0.8l9.3-2v-1L79.3,40.1z"/>
		<path class="st6" d="M79.3,40.1l9.4-2v-0.2c0-0.5,0.4-0.9,0.9-0.9v-3.5l-11.2,2.4v3.5C78.8,39.4,79.2,39.7,79.3,40.1z M79.3,36.7
			l9.3-2v2.5l-9.3,2V36.7z"/>
		<path class="st6" d="M89.8,38.8l-1.1,0.2v5.6c1.1,0.6,1.9,1.8,1.9,3.2v-10C90.5,38.4,90.2,38.8,89.8,38.8z"/>
		<path class="st6" d="M89.6,37v0.9h0h0l-0.9,0.2v1l1.1-0.2c0.4-0.1,0.7-0.5,0.7-0.9v0C90.5,37.4,90.1,37,89.6,37z"/>
		<path class="st6" d="M88.6,37.9v0.2l0.9-0.2V37C89.1,37,88.6,37.4,88.6,37.9z"/>
		<path class="st6" d="M89.6,48.9c-0.1,0-0.1,0-0.2,0c-0.4,1.1-1.4,1.9-2.6,1.9c-1.5,0-2.8-1.3-2.8-2.8c0-1.5,1.3-2.8,2.8-2.8
			c0.7,0,1.4,0.3,1.9,0.7v-1.1c-0.6-0.3-1.2-0.5-1.9-0.5c-2.1,0-3.7,1.7-3.7,3.7c0,2.1,1.7,3.7,3.7,3.7c2.1,0,3.7-1.7,3.7-3.7
			C90.5,48.4,90.1,48.9,89.6,48.9z"/>
		<path class="st6" d="M84,47.9c0,1.5,1.3,2.8,2.8,2.8c1.2,0,2.3-0.8,2.6-1.9c-0.4-0.1-0.8-0.4-0.8-0.9c0,1-0.8,1.9-1.9,1.9
			c-1,0-1.9-0.8-1.9-1.9s0.8-1.9,1.9-1.9c1,0,1.9,0.8,1.9,1.9v-2.1c-0.5-0.4-1.1-0.7-1.9-0.7C85.2,45.1,84,46.4,84,47.9z"/>
		<path class="st6" d="M88.6,44.7v1.1c0.6,0.5,0.9,1.2,0.9,2.1c0,0.3-0.1,0.6-0.2,0.9c0.1,0,0.1,0,0.2,0c0.5,0,0.9-0.4,0.9-0.9
			c0,0,0,0,0,0C90.5,46.5,89.8,45.4,88.6,44.7z"/>
		<path class="st6" d="M89.4,48.8c0.1-0.3,0.2-0.6,0.2-0.9c0-0.8-0.4-1.6-0.9-2.1v2.1C88.6,48.4,89,48.8,89.4,48.8z"/>
		<path class="st6" d="M78.4,41.3c-0.2,0-0.4-0.1-0.6-0.2c-0.2-0.2-0.3-0.4-0.3-0.7v6.8c1.1,0.6,1.9,1.8,1.9,3.2v-9.2l-0.7,0.2
			C78.5,41.3,78.4,41.3,78.4,41.3z"/>
		<path class="st6" d="M79.3,40.1l-0.9,0.2v-0.9c-0.5,0-0.9,0.4-0.9,0.9c0,0.3,0.1,0.6,0.3,0.7c0.2,0.1,0.4,0.2,0.6,0.2
			c0.1,0,0.1,0,0.2,0l0.7-0.2v-0.8C79.3,40.3,79.3,40.2,79.3,40.1z"/>
		<path class="st6" d="M79.3,40.1c-0.1-0.4-0.4-0.7-0.9-0.7v0.9L79.3,40.1z"/>
		<path class="st6" d="M78.4,51.3c-0.1,0-0.1,0-0.2,0c-0.4,1.1-1.4,1.9-2.6,1.9c-1.5,0-2.8-1.3-2.8-2.8c0-1.5,1.3-2.8,2.8-2.8
			c0.7,0,1.4,0.3,1.9,0.7v-1.1c-0.6-0.3-1.2-0.5-1.9-0.5c-2.1,0-3.7,1.7-3.7,3.7c0,2.1,1.7,3.7,3.7,3.7c2.1,0,3.7-1.7,3.7-3.7
			c0,0,0,0,0,0v0C79.3,50.8,78.9,51.3,78.4,51.3z"/>
		<path class="st6" d="M72.8,50.3c0,1.5,1.3,2.8,2.8,2.8c1.2,0,2.3-0.8,2.6-1.9c-0.4-0.1-0.8-0.4-0.8-0.9c0,1-0.8,1.9-1.9,1.9
			c-1,0-1.9-0.8-1.9-1.9c0-1,0.8-1.9,1.9-1.9c1,0,1.9,0.8,1.9,1.9v-2.1c-0.5-0.4-1.1-0.7-1.9-0.7C74,47.5,72.8,48.8,72.8,50.3z"/>
		<path class="st6" d="M77.4,47.1v1.1c0.6,0.5,0.9,1.2,0.9,2.1c0,0.3-0.1,0.6-0.2,0.9c0.1,0,0.1,0,0.2,0c0.5,0,0.9-0.4,0.9-0.9v0
			C79.3,48.9,78.6,47.8,77.4,47.1z"/>
		<path class="st6" d="M77.4,50.3C77.4,50.3,77.4,50.3,77.4,50.3c0,0.5,0.3,0.8,0.8,0.9c0.1-0.3,0.2-0.6,0.2-0.9
			c0-0.8-0.4-1.6-0.9-2.1L77.4,50.3C77.4,50.3,77.4,50.3,77.4,50.3z"/>
	</g>
	<path class="st6" d="M12.9,21c0,0.1,0.1,0.1,0.1,0c0.3-1.6,1.6-3,3.3-3.3c0.1,0,0.1-0.1,0-0.1c-1.7-0.3-3-1.6-3.3-3.3
		c0-0.1-0.1-0.1-0.1,0c-0.3,1.6-1.6,3-3.3,3.3c-0.1,0-0.1,0.1,0,0.1C11.3,18.1,12.6,19.4,12.9,21z"/>
	<path class="st6" d="M73.7,32.7c-1.2-0.2-2.1-1.1-2.3-2.3c0-0.1-0.1-0.1-0.1,0c-0.2,1.2-1.2,2.1-2.3,2.3c-0.1,0-0.1,0.1,0,0.1
		c1.2,0.2,2.1,1.1,2.3,2.3c0,0.1,0.1,0.1,0.1,0c0.2-1.2,1.2-2.1,2.3-2.3C73.7,32.8,73.7,32.7,73.7,32.7z"/>
	<path class="st6" d="M77.3,69.1c0.7,0,1.2-0.5,1.2-1.2V67h0.9c0.6,0,1.2-0.5,1.2-1.2c0-0.7-0.5-1.2-1.2-1.2h-0.9v-0.9
		c0-0.6-0.5-1.2-1.2-1.2c-0.7,0-1.2,0.5-1.2,1.2v0.9h-0.9c-0.6,0-1.2,0.5-1.2,1.2c0,0.7,0.5,1.2,1.2,1.2h0.9v0.9
		C76.1,68.5,76.6,69.1,77.3,69.1z"/>
	<circle class="st6" cx="17.6" cy="27.5" r="1.3"/>
	<circle class="st6" cx="82" cy="57.1" r="1.3"/>
</g>
</svg>
