<?xml version="1.0" encoding="utf-8"?>
<!-- Generator: Adobe Illustrator 22.1.0, SVG Export Plug-In . SVG Version: 6.00 Build 0)  -->
<svg version="1.1" id="Layer_1" xmlns="http://www.w3.org/2000/svg" xmlns:xlink="http://www.w3.org/1999/xlink" x="0px" y="0px"
	 viewBox="0 0 100 100" style="enable-background:new 0 0 100 100;" xml:space="preserve">
<style type="text/css">
	.st0{fill:#EDEDED;}
	.st1{fill:#CECECE;}
	.st2{fill:#FFFFFF;}
	.st3{fill:#2E373D;}
	.st4{fill:#E6E6E6;}
	.st5{fill:#DD800C;}
	.st6{fill:#F2940C;}
	.st7{fill:#DEDEDE;}
	.st8{fill:#D5D5D5;}
	.st9{fill:#B4B4B4;}
	.st10{fill:#A3A3A3;}
	.st11{fill:#DCDCDC;}
	.st12{fill:#CDCDCD;}
	.st13{fill:none;}
	.st14{fill:#EBBF00;}
	.st15{fill:#EDF4FC;}
	.st16{fill:#70D6F9;}
	.st17{fill:#D1956D;}
	.st18{fill:#F5C84C;}
	.st19{fill:#F9D0B4;}
	.st20{fill:#9BE5F9;}
	.st21{fill:#754E34;}
	.st22{fill:#87D147;}
	.st23{fill:#FC657E;}
	.st24{fill:#2051A0;}
</style>
<g>
	<path class="st13" d="M23.6,55.3c-4.3-1.3-8.7-2.4-13.1-3.4c-1.3-0.3-2.2,0.5-2.4,1.8c-0.1,0.8,0,1.6,0,2.4c0,2.2,1.1,3.3,3.2,3.3
		c4.6,0.1,9.2,0.3,13.9,0.4c0.8,0.1,1.6,0.1,2-0.7c0.4-0.8-0.2-1.4-0.8-2C25.7,56.4,24.8,55.7,23.6,55.3z"/>
	<path class="st13" d="M80,40.9c0.2-0.3-0.1-0.6-0.2-0.8c-1.4-2.7-2.8-5.4-4.3-8c-1.5-2.6-3.7-4.4-6.8-4.7c-2.5-0.3-5.1-0.5-7.7-0.5
		c-9.5-0.1-19.1-0.4-28.6,0.4c-3.4,0.3-6,1.7-7.7,4.7c-1.5,2.7-2.9,5.4-4.4,8.1c-0.1,0.2-0.4,0.5-0.2,0.8c0.2,0.3,0.5,0.1,0.8,0.1
		c4.8-0.6,9.5-0.9,14.3-1.1c8-0.2,16-0.4,24-0.1c6.7,0.2,13.4,0.5,20.1,1.2C79.5,41,79.8,41.2,80,40.9z"/>
	<path class="st13" d="M91.8,55.4c0-3.3-0.7-3.9-3.9-3.1c-3.4,0.9-6.8,1.7-10.3,2.6c-1.6,0.4-3.1,1.2-4.2,2.4
		c-0.5,0.5-1.1,1.1-0.7,1.9c0.4,0.8,1.2,0.8,2,0.8c4.7-0.2,9.3-0.3,14-0.5c1.1,0,2-0.4,2.6-1.2C92,57.4,91.8,56.4,91.8,55.4z"/>
	<path class="st6" d="M95,56.5c0-3.9-1.4-7.2-3.9-10.1c-1.7-1.9-3.7-3.3-6.4-4.4c1-0.2,1.7-0.2,2.3-0.4c1.1-0.2,2.3-0.2,3.3-0.7
		c1.8-1,2.4-3.2,1.1-4.4c-1.1-1.1-6.6-2.1-8-1.5c-0.9,0.4-1.3,1.3-1.6,2.4c-1.3-2.4-2.4-4.5-3.6-6.6c-2.1-3.6-5-6.1-9.3-6.6
		c-1.5-0.2-3.1-0.3-4.6-0.4c-0.9,0-1.4-0.3-1.5-1.3c-0.3-2.1-0.7-4.1-1.2-6.2c-0.3-1.4-0.9-2-2.3-2c-6.3,0-12.5,0-18.8,0
		c-1.4,0-2,0.6-2.3,2c-0.4,2.1-0.8,4.3-1.2,6.4c-0.1,0.7-0.5,1-1.2,1c-1.2,0-2.3,0.2-3.5,0.2c-5,0.3-8.6,2.7-11,7.1
		c-1.1,2-2.1,4-3.3,6c-0.9-1.9-1.5-2.5-2.6-2.5c-2,0.1-3.9,0.3-5.8,1c-1.1,0.4-1.9,1.1-1.8,2.3c0,1.3,0.5,2.4,1.8,2.9
		c0.5,0.2,1.1,0.3,1.7,0.4c1.2,0.2,2.4,0.4,3.6,0.5c0,0.1,0,0.1,0,0.2c-0.2,0.1-0.4,0.2-0.6,0.2C8.5,45.3,5.1,49.9,5,56.6
		c-0.1,4.7,0,9.3,0,14c0,1.9,0.6,3.6,2,4.8c0.6,0.5,0.8,1,0.8,1.8c0,1.4,0,2.9,0,4.3c0.1,2.3,1.5,3.7,3.7,4c1.4,0.2,2.9,0.2,4.3,0
		c1.9-0.3,3.2-1.5,3.4-3.4c0.1-1.1,0.1-2.3,0.1-3.4c0-1.8,0-1.8,1.7-1.8c12.8,0,25.7,0,38.5,0c6.5,0,13,0,19.4,0
		c1.1,0,1.5,0.3,1.5,1.4c-0.1,1.2,0,2.4,0.1,3.5c0.2,2.2,1.5,3.4,3.6,3.7c1.3,0.2,2.7,0.2,4,0c2.4-0.3,3.8-1.7,3.9-4.2
		c0-1.4,0-2.8,0-4.2c0-0.7,0.2-1.2,0.7-1.7c1.5-1.3,2.1-3,2.1-5.1C95,65.8,95,61.2,95,56.5z M56.7,17.5h1.1v4.9h-1.1V17.5z
		 M51.4,17.5h1.3l0.9,1.5l0.9-1.5h1.3l-1.5,2.4l1.7,2.6h-1.3l-1.1-1.6l-1,1.6h-1.3l1.7-2.5L51.4,17.5z M49.1,17.5l2.1,4.9h-1.2
		l-0.5-1.1h-2.1l-0.5,1.1h-1.2l2.1-4.9H49.1z M42.2,17.5h3.9v1h-1.4v4h-1.1v-4h-1.4V17.5z M27.3,59.3c-0.4,0.8-1.2,0.7-2,0.7
		c-4.6-0.1-9.2-0.3-13.9-0.4c-2.1-0.1-3.2-1.2-3.2-3.3c0-0.8,0-1.6,0-2.4c0.1-1.3,1.1-2.1,2.4-1.8c4.4,1,8.8,2.1,13.1,3.4
		c1.1,0.3,2.1,1.1,2.9,2C27,57.8,27.7,58.4,27.3,59.3z M59.1,39.8c-8-0.3-16-0.1-24,0.1c-4.8,0.1-9.6,0.4-14.3,1.1
		c-0.3,0-0.6,0.2-0.8-0.1c-0.2-0.3,0.1-0.6,0.2-0.8c1.4-2.7,2.8-5.5,4.4-8.1c1.7-3,4.3-4.4,7.7-4.7c9.5-0.8,19.1-0.5,28.6-0.4
		c2.6,0,5.1,0.3,7.7,0.5c3.1,0.3,5.3,2.1,6.8,4.7c1.5,2.6,2.9,5.3,4.3,8c0.1,0.3,0.4,0.5,0.2,0.8c-0.1,0.3-0.5,0.1-0.7,0.1
		C72.6,40.2,65.9,40,59.1,39.8z M91.3,58.3c-0.7,0.9-1.5,1.2-2.6,1.2c-4.7,0.1-9.3,0.3-14,0.5c-0.8,0-1.6,0-2-0.8
		c-0.3-0.8,0.3-1.4,0.7-1.9c1.2-1.2,2.6-2,4.2-2.4c3.4-0.9,6.8-1.7,10.3-2.6c3.2-0.8,3.9-0.3,3.9,3.1C91.8,56.4,92,57.4,91.3,58.3z"
		/>
	<polygon class="st6" points="48.6,18.9 47.9,20.4 49.2,20.4 	"/>
</g>
</svg>
