<?xml version="1.0" encoding="utf-8"?>
<!-- Generator: Adobe Illustrator 22.1.0, SVG Export Plug-In . SVG Version: 6.00 Build 0)  -->
<svg version="1.1" id="Layer_1" xmlns="http://www.w3.org/2000/svg" xmlns:xlink="http://www.w3.org/1999/xlink" x="0px" y="0px"
	 viewBox="0 0 100 100" style="enable-background:new 0 0 100 100;" xml:space="preserve">
<style type="text/css">
	.st0{fill:#EDEDED;}
	.st1{fill:#CECECE;}
	.st2{fill:#FFFFFF;}
	.st3{fill:#2E373D;}
	.st4{fill:#E6E6E6;}
	.st5{fill:#DD800C;}
	.st6{fill:#F2940C;}
	.st7{fill:#DEDEDE;}
	.st8{fill:#D5D5D5;}
	.st9{fill:#B4B4B4;}
	.st10{fill:#A3A3A3;}
	.st11{fill:#DCDCDC;}
	.st12{fill:#CDCDCD;}
	.st13{fill:none;}
	.st14{fill:#EBBF00;}
	.st15{fill:#EDF4FC;}
	.st16{fill:#70D6F9;}
	.st17{fill:#D1956D;}
	.st18{fill:#F5C84C;}
	.st19{fill:#F9D0B4;}
	.st20{fill:#9BE5F9;}
	.st21{fill:#754E34;}
	.st22{fill:#87D147;}
	.st23{fill:#FC657E;}
	.st24{fill:#2051A0;}
</style>
<g>
	<path class="st6" d="M92.5,64.4c-0.3,1.6-0.5,3.3-1,4.8c-3.1,8.9-9.3,14.2-18.6,15.7c-0.1,0-0.2,0-0.3,0c0-0.2-0.1-0.5-0.1-0.7
		c0-2.9,0-5.9,0-8.8c0-0.5,0.1-0.8,0.6-1c3.2-1.5,4.9-4.9,4.2-8.3c-0.7-3.4-3.6-5.9-7.2-6c-1.5-0.1-2.5-0.9-2.6-2.2
		c-0.1-1.2,0.6-2.3,1.8-2.6c0.3-0.1,0.7-0.1,1-0.1c2.1,0,4.2,0,6.2,0c0.3,0,0.6,0,0.9,0c0-1.7,0-3.3,0-5c-1.6,0-3.2,0-4.9,0
		c0-3.3,0-6.5,0-9.9c1.1,0.2,2.2,0.4,3.2,0.6c8.9,2.3,15.6,10.1,16.6,19.2c0,0.2,0.1,0.5,0.2,0.7C92.5,62,92.5,63.2,92.5,64.4z"/>
	<path class="st6" d="M43.2,92.5c-1.5-0.2-3-0.4-4.4-0.6C28.2,89.8,19.9,84.2,14,75.2c-0.2-0.3-0.3-0.5-0.6-0.9
		c-0.3,1.2-0.7,2.3-1,3.5c-1.6-0.4-3.1-0.8-4.8-1.3c1.1-4.2,2.3-8.4,3.4-12.6c3.9,1.4,7.8,2.7,11.7,4.1c-0.6,1.6-1.1,3.1-1.6,4.7
		c-1.1-0.4-2.2-0.7-3.5-1.2c3.6,5.9,8.4,10.3,14.5,13.1c6.1,2.8,12.5,3.6,19.2,2.4c0.3,1.7,0.6,3.2,0.9,4.9
		c-1.4,0.2-2.8,0.4-4.1,0.6C46.4,92.5,44.8,92.5,43.2,92.5z"/>
	<path class="st6" d="M32.9,64.9c-13.3,0-24-9.7-25.2-22.7c-1.3-13.2,8.2-25.2,21.3-27c13.4-1.9,25.7,6.9,28.2,20.2
		c0.2,0.8,0.5,1.8,0.2,2.4c-0.2,0.6-1.2,0.9-1.9,1.3c-8.2,5.4-12.6,13-12.9,22.9c0,0.6-0.2,0.8-0.7,1C38.8,64.3,35.7,65,32.9,64.9z
		 M26.1,28.3c-1.2,1.2-2.3,2.3-3.5,3.5c0.1,0.1,0.3,0.3,0.5,0.5c1.9,1.9,3.8,3.8,5.6,5.6c0.2,0.2,0.5,0.4,0.5,0.6c0,1.3,0,2.5,0,3.9
		c-1.7,0-3.3,0-4.9,0c0,1.7,0,3.3,0,5c1.7,0,3.3,0,5,0c0,1.7,0,3.3,0,4.9c1.7,0,3.3,0,5,0c0-1.7,0-3.3,0-4.9c1.7,0,3.3,0,4.9,0
		c0-1.7,0-3.3,0-5c-1.7,0-3.3,0-4.9,0c0-1.1,0-2.2,0-3.2c0-0.4,0.2-0.9,0.5-1.2c1.6-1.7,3.3-3.3,4.9-4.9c0.4-0.4,0.9-0.9,1.3-1.2
		c-1.2-1.2-2.4-2.4-3.7-3.7c-1.8,1.8-3.7,3.7-5.7,5.7C29.8,32,27.9,30.1,26.1,28.3z"/>
	<path class="st6" d="M67.4,40.3c0,0.3,0,0.6,0,0.8c0,2.9,0,5.8,0,8.6c0,0.5-0.1,0.8-0.6,1.1c-3.1,1.5-4.7,4.5-4.3,8
		c0.4,3.1,3,5.7,6.3,6.2c0.4,0.1,0.9,0,1.3,0.1c1.4,0.2,2.4,1.3,2.3,2.6c-0.1,1.3-1.1,2.4-2.5,2.4c-2.2,0-4.3,0-6.5,0
		c-0.3,0-0.6,0-1,0c0,1.7,0,3.3,0,5c1.6,0,3.2,0,4.9,0c0,3.3,0,6.6,0,9.8C57.2,84,47.1,74.8,47.5,61.7C48,49.3,58,41.1,67.4,40.3z"
		/>
	<path class="st6" d="M77.3,32c0.5-1.6,1.1-3.1,1.6-4.7c1.1,0.4,2.2,0.7,3.3,1.1c-1.4-4-8.4-10.3-14.3-13
		c-6.1-2.8-12.5-3.6-19.3-2.4c-0.3-1.6-0.6-3.2-0.9-5c16.6-2,29.5,3.8,38.8,17.6c0.3-1.1,0.6-2.2,0.9-3.3c0.2,0,0.3,0,0.4,0
		c1.4,0.4,2.9,0.8,4.4,1.2c-1.1,4.2-2.3,8.4-3.4,12.6C85.1,34.7,81.2,33.3,77.3,32z"/>
</g>
</svg>
