<?xml version="1.0" encoding="utf-8"?>
<!-- Generator: Adobe Illustrator 22.1.0, SVG Export Plug-In . SVG Version: 6.00 Build 0)  -->
<svg version="1.1" id="Layer_1" xmlns="http://www.w3.org/2000/svg" xmlns:xlink="http://www.w3.org/1999/xlink" x="0px" y="0px"
	 viewBox="0 0 100 100" style="enable-background:new 0 0 100 100;" xml:space="preserve">
<style type="text/css">
	.st0{fill:#EDEDED;}
	.st1{fill:#CECECE;}
	.st2{fill:#FFFFFF;}
	.st3{fill:#2E373D;}
	.st4{fill:#E6E6E6;}
	.st5{fill:#DD800C;}
	.st6{fill:#F2940C;}
	.st7{fill:#DEDEDE;}
	.st8{fill:#D5D5D5;}
	.st9{fill:#B4B4B4;}
	.st10{fill:#A3A3A3;}
	.st11{fill:#DCDCDC;}
	.st12{fill:#CDCDCD;}
	.st13{fill:none;}
	.st14{fill:#EBBF00;}
	.st15{fill:#EDF4FC;}
	.st16{fill:#70D6F9;}
	.st17{fill:#D1956D;}
	.st18{fill:#F5C84C;}
	.st19{fill:#F9D0B4;}
	.st20{fill:#9BE5F9;}
	.st21{fill:#754E34;}
	.st22{fill:#87D147;}
	.st23{fill:#FC657E;}
	.st24{fill:#2051A0;}
</style>
<g>
	<path class="st6" d="M30.7,78.5c0-7,0-13.9,0-21.5c0.7,1.2,1.1,2,1.5,2.7c1.5,2.7,4.3,2.8,5.6,0c0.9-2,1.9-2.6,4.1-2.4
		c3,0.3,4.4-2.1,2.9-4.7C44,51.2,43,49.8,42,48.3c3.1-1.5,4.5-3.9,4.2-7.4c16.3,0,32.4,0,48.7,0c0,2.6,0,5.1,0,7.6
		c0,8.4,0,16.8,0,25.2c0,3.5-1.3,4.9-4.7,4.9c-19.2,0-38.5,0-57.7,0C32,78.7,31.4,78.6,30.7,78.5z"/>
	<path class="st6" d="M45,35.3c1.3-3.2,1.3-6.4-1.9-8.4c-4.6-2.9-8.4,0-12.3,2.5c0-2.7,0-5.2,0-7.9c0.9,0,1.8-0.1,2.6-0.1
		c18.7,0,37.3,0,56,0c4.5,0,5.6,1.1,5.6,5.6c0,2.7,0,5.5,0,8.4C78.3,35.3,61.7,35.3,45,35.3z"/>
	<path class="st6" d="M13.9,48.2c-1,1.5-2,2.7-2.5,4.1c-0.5,1.1-0.9,2.8-0.4,3.6c0.5,0.9,2.2,1.5,3.3,1.4c1.9-0.2,2.8,0.4,3.6,2.1
		c0.5,1,1.9,2.2,2.9,2.2c1,0,2.1-1.2,3-2.1c0.6-0.6,0.8-1.4,1.5-2.7c0,7.6,0,14.7,0,21.9c-5.7,0-11.4,0.1-17,0
		c-1.9,0-3.1-1.5-3.2-3.3C5,63.8,5,52.5,5,40.9c1.6,0,3.1,0,4.7,0C9.6,44.2,10.7,46.7,13.9,48.2z"/>
	<path class="st6" d="M42.7,54.6c-4.1-1.1-6.5,0.4-7.3,4.6c-0.2,0-0.4-0.1-0.6-0.1c-2.2-4.3-4.5-8.7-6.9-13.5
		c-2.4,4.8-4.7,9.1-7.2,14.2c-1.1-4.5-3.5-6.2-7.7-5c2.5-3.6,3.6-8,8.2-9.5c0.6-0.2,1.3-0.6,1.6-1.1c1.9-3.2,5.2-1.1,7.6-2.1
		c0.3-0.1,0.8,0.5,1.2,0.8c1,0.7,1.9,1.8,3,2.2C39.1,46.6,40.2,51,42.7,54.6z"/>
	<path class="st6" d="M10.9,35.4c-1.9,0-3.7,0-5.8,0c0-3.6-0.1-7.2,0.1-10.7c0.1-1.9,1.5-3.3,3.5-3.3c5.5-0.1,11,0,16.7,0
		c0,2.7,0,5.2,0,7.8c-1.9-1-3.7-2.2-5.6-2.9c-4.7-1.7-9,0.7-9.3,5.1C10.2,32.7,10.7,34,10.9,35.4z"/>
	<path class="st6" d="M32.1,35.7c-0.5-0.5-1-1.1-1.7-1.8c2.2-2.7,4.7-4.9,8.3-5.4c3.4-0.5,5.3,2,4,5.1c-0.9,2.3-0.7,4.4,0.3,6.5
		c0.8,1.6,1.2,3.5-0.4,4.5c-1.2,0.8-3.2,1.3-4.5,0.8c-2.4-0.8-4.4-2.4-6.1-3.3C32,39.4,32,37.5,32.1,35.7c2.5-0.7,5-1.3,7.5-2.1
		c0.6-0.2,0.9-1.5,1.3-2.3c-0.8-0.2-1.7-0.8-2.4-0.6C35.7,31.5,33.3,32.9,32.1,35.7z"/>
	<path class="st6" d="M24,35.6c-0.1,1.8-0.2,3.6-0.3,5.4c0.2,0.1,0.5,0.1,0.7,0.2c-2,2.3-4.4,4.1-7.4,4.5c-1.2,0.2-3-0.4-3.7-1.3
		c-0.7-0.9-0.8-2.7-0.4-3.8c0.9-2.5,1.4-4.8,0.2-7.4c-1.1-2.5,0.8-4.9,3.6-4.7c3.8,0.2,6.3,2.6,8.8,5.4C25,34.4,24.5,35.1,24,35.6
		c-2-1.6-3.9-3.4-6-4.8c-0.6-0.4-1.9,0.3-2.8,0.5c0.5,0.8,0.8,2.2,1.5,2.4C19,34.5,21.5,35,24,35.6z"/>
	<path class="st6" d="M31.5,38c0,1.9-1.7,3.5-3.6,3.4c-1.9,0-3.5-1.7-3.4-3.6c0-1.9,1.6-3.4,3.6-3.4C30,34.5,31.5,36.1,31.5,38z"/>
</g>
</svg>
