<?xml version="1.0" encoding="utf-8"?>
<!-- Generator: Adobe Illustrator 22.1.0, SVG Export Plug-In . SVG Version: 6.00 Build 0)  -->
<svg version="1.1" id="Layer_1" xmlns="http://www.w3.org/2000/svg" xmlns:xlink="http://www.w3.org/1999/xlink" x="0px" y="0px"
	 viewBox="0 0 100 100" style="enable-background:new 0 0 100 100;" xml:space="preserve">
<style type="text/css">
	.st0{fill:#EDEDED;}
	.st1{fill:#CECECE;}
	.st2{fill:#FFFFFF;}
	.st3{fill:#2E373D;}
	.st4{fill:#E6E6E6;}
	.st5{fill:#DD800C;}
	.st6{fill:#F2940C;}
	.st7{fill:#DEDEDE;}
	.st8{fill:#D5D5D5;}
	.st9{fill:#B4B4B4;}
	.st10{fill:#A3A3A3;}
	.st11{fill:#DCDCDC;}
	.st12{fill:#CDCDCD;}
	.st13{fill:none;}
	.st14{fill:#EBBF00;}
	.st15{fill:#EDF4FC;}
	.st16{fill:#70D6F9;}
	.st17{fill:#D1956D;}
	.st18{fill:#F5C84C;}
	.st19{fill:#F9D0B4;}
	.st20{fill:#9BE5F9;}
	.st21{fill:#754E34;}
	.st22{fill:#87D147;}
	.st23{fill:#FC657E;}
	.st24{fill:#2051A0;}
</style>
<g>
	<path class="st6" d="M99.9,22.2c-1.5,1-2.7,2.3-4.1,3.4c-0.5,0.4-1,0.7-1.7,0.8c-9.3,1.5-18.7,3-28,4.5c-0.5,0.1-1.1,0.3-1.4-0.5
		c-0.1-0.3-0.4-0.3-0.7-0.2c-2,0.3-3.9,0.6-5.9,0.9c-0.5,0.1-0.8,0.4-0.6,0.9c0,0.1,0,0.3,0.1,0.4c0.3,2,0.2,1.7,1.9,1.4
		c1.5-0.2,2.2,0.2,2.9,1.5c0.6,1.1,1.1,2.2,1.6,3.3c0.2,0.5,0.6,0.8,1.2,0.8c8.3,0.4,14.5,4.6,19.6,10.9c0.5,0.6,0.7,1.2,0.5,1.9
		c-1.4,4.1-3.7,7.5-7.8,9.2c-1.2,0.5-2.5,0.7-3.8,0.9c-0.7,0.1-1.2,0.2-1.1,1.1c0.1,0.9,0.6,0.9,1.3,0.8c2.3-0.4,4.7-0.8,7-1.1
		c0.6-0.1,1.2-0.2,1.6,0.4c0.4,0.7-0.1,1.1-0.5,1.6c-1.1,1.3-2.6,1.7-4.1,1.9c-9.7,1.6-19.4,3.1-29,4.6c-0.3,0-0.6,0-0.9,0
		c-0.4,0-0.7-0.3-0.7-0.7c-0.1-0.4,0.1-0.8,0.4-0.9c0.9-0.4,1.7-0.7,2.1-1.8c0.1-0.4,0.7-0.4,1.1-0.4c1.6-0.3,3.1-0.5,4.7-0.8
		c0.6-0.1,1.3,0,1.1-1c-0.1-1-0.7-1-1.4-1c-2.2,0.1-4.4-0.1-6.4-0.8c-3.7-1.2-6.3-3.5-7.6-7.2c-0.3-0.9-0.8-1.2-1.8-1.2
		c-6.8-0.1-13.6-0.3-20.5-0.5c-0.8,0-1.2,0.2-1.6,0.9c-1.5,3.1-4.9,4.6-8.1,3.8c-3.3-0.9-5.7-3.9-5.4-7.4c0.4-4.1-0.9-7.6-3-10.9
		c-1.3-1.9-1.1-2.1,1.1-2.5c1.3-0.2,2.5-0.4,3.8-0.6c0.7-0.1,1.2,0,1.7,0.5c2,2,4,4.1,5.6,6.4c0.7,0.9,1.7,1.4,2.5,2.1
		c0.3,0.2,0.6,0.1,1,0.1c5.3-1,10.7-2,16-3.1c2.6-0.5,5.2-0.9,7.8-1.5c3.2-0.7,6.4-1.2,9.6-1.8c0.7-0.1,1-0.5,1.1-1.1
		c0.1-1,0.3-2,0.4-3c0.2-1.8,0.8-2.4,2.6-2.7c0.4-0.1,1.2,0.1,1.2-0.6c0.1-0.7,0-1.5-0.4-2.2c-0.2-0.3-0.5-0.2-0.8-0.1
		c-1.9,0.3-3.7,0.6-5.6,0.9c-0.3,0-0.7,0.1-0.7,0.4c0,0.9-0.7,0.9-1.3,1C37.3,35.5,28,37,18.8,38.4c-0.7,0.1-1.4,0.1-2-0.2
		c-1.4-0.6-2.8-1.2-4.2-1.8c-0.2-0.1-0.4-0.1-0.4-0.3c0-0.3,0.3-0.3,0.5-0.4c0.4-0.1,0.7-0.1,1.1-0.2c28.7-4.6,57.4-9.2,86.1-13.7
		C99.8,22,99.9,22.1,99.9,22.2z M69.6,53.7c2.9-0.5,5.8-0.9,8.7-1.4c1.1-0.2,1.2-0.2,0.4-1.1c-2.2-2.8-5.1-4.4-8.3-5.7
		c-2.7-1.1-5.5-1.9-8.4-1.5c-4,0.5-7.9,1.2-11.8,1.8c-0.8,0.1-0.9,0.5-0.7,1.1c0.5,1.6,1.2,3.2,2.3,4.6c2.4,2.9,5.6,3.9,9.2,3.5
		C63.9,54.7,66.8,54.2,69.6,53.7z M7.2,53.8c0.3,2.1,2.3,3.6,4.4,3.2c2.1-0.3,3.5-2.4,3.2-4.4c-0.3-2-2.4-3.5-4.4-3.2
		C8.3,49.7,6.9,51.7,7.2,53.8z M64.6,65.7c1.8-0.3,3.5-0.6,5.3-0.8c0.7-0.1,1-0.4,0.9-1.2c-0.1-0.8-0.5-0.9-1.2-0.8
		c-3.5,0.6-7,1.1-10.5,1.7c-0.7,0.1-1,0.4-0.8,1.1c0.1,0.7,0.4,0.9,1.1,0.8C61.1,66.3,62.9,66,64.6,65.7z"/>
</g>
</svg>
