<?xml version="1.0" encoding="utf-8"?>
<!-- Generator: Adobe Illustrator 22.1.0, SVG Export Plug-In . SVG Version: 6.00 Build 0)  -->
<svg version="1.1" id="Layer_1" xmlns="http://www.w3.org/2000/svg" xmlns:xlink="http://www.w3.org/1999/xlink" x="0px" y="0px"
	 viewBox="0 0 100 100" style="enable-background:new 0 0 100 100;" xml:space="preserve">
<style type="text/css">
	.st0{fill:#EDEDED;}
	.st1{fill:#CECECE;}
	.st2{fill:#FFFFFF;}
	.st3{fill:#2E373D;}
	.st4{fill:#E6E6E6;}
	.st5{fill:#DD800C;}
	.st6{fill:#F2940C;}
	.st7{fill:#DEDEDE;}
	.st8{fill:#D5D5D5;}
	.st9{fill:#B4B4B4;}
	.st10{fill:#A3A3A3;}
	.st11{fill:#DCDCDC;}
	.st12{fill:#CDCDCD;}
	.st13{fill:none;}
	.st14{fill:#EBBF00;}
	.st15{fill:#EDF4FC;}
	.st16{fill:#70D6F9;}
	.st17{fill:#D1956D;}
	.st18{fill:#F5C84C;}
	.st19{fill:#F9D0B4;}
	.st20{fill:#9BE5F9;}
	.st21{fill:#754E34;}
	.st22{fill:#87D147;}
	.st23{fill:#FC657E;}
	.st24{fill:#2051A0;}
</style>
<g>
	<path class="st6" d="M72.5,42.4c-0.8,1.1-1.6,2.1-2.4,3.2c0.3,0.3,0.6,0.5,1,0.8c-0.5,0.7-1,1.4-1.5,2c-0.6,0.7-0.7,1.4-0.4,2.3
		c2.4,6.3,2.4,12.6-0.1,18.9C64.7,81,52.7,87.8,40.7,85.8c-11.8-2-20.8-11.4-21.9-23.3c-0.4-4.1,0.1-8.2,1.8-12
		c0.4-1,0.5-1.8-0.1-2.7c-0.4-0.6-0.7-1.3-1-2c-0.4-1.1-0.6-2.3-1-3.3c-0.4-1.1-1-2.2-1.6-3.4c0.4-0.2,0.7-0.4,1.1-0.6
		c-0.6-1.3-1.3-2.6-1.9-3.9c-0.1-0.3,0-0.7,0-1c0-0.3,0-0.5-0.1-0.8c-0.4-0.9-0.9-1.8-1.3-2.8c-0.1-0.4,0-0.9,0-1.3
		c0.1,0,0.2,0,0.3,0c-0.6-1.2-1.1-2.4-1.8-3.7c0.2-0.2,0.4-0.4,0.7-0.6c-0.5-1.1-1-2.1-1.5-3.2c0.3-0.2,0.5-0.3,0.9-0.6
		c-0.4-0.8-0.8-1.7-1.3-2.7c-0.5,0.4-0.9,0.8-1.3,1.1C8.9,20,7,21,5.1,21.8c-1.7,0.6-2.3,0.1-2.5-1.7c-0.3-3,0.6-5.6,3-7.9
		c-0.8,0-1.4,0.1-2,0c-0.8-0.1-1.7-0.2-2.5-0.5c-1.2-0.4-1.4-1.2-0.5-2.1c1.3-1.1,2.7-2.1,4-3C5,6.4,5.4,6.2,5.9,5.9
		C5.7,5.6,5.6,5.3,5.5,5C4.9,3.6,5.3,2.8,6.8,2.6c2.2-0.3,4,0.3,5.3,2.3c0.3,0.4,0.5,0.8,0.9,1.4c0.2-0.6,0.3-1,0.4-1.5
		c0.5-1.5,1.3-2.6,2.9-2.9c1.7-0.4,2.5,0.5,2.2,2.2c-0.1,0.4-0.2,0.7-0.3,1.1c1.4,0.5,2.8,1,4.1,1.6C23,7,23.6,7.5,24.2,8.1
		c0.9,0.8,0.8,1.6-0.4,2c-1.3,0.4-2.7,0.6-4.1,0.9c-0.2,0-0.4,0-0.5,0c1,0.9,2.2,1.8,3.2,2.9c1.2,1.3,1.8,2.9,2.1,4.7
		c0.2,1.5-0.2,1.9-1.7,2c-1.8,0.1-3.6-0.4-5.2-1.2c-0.3-0.1-0.6-0.3-0.9-0.4c0.3,1.4,0.7,2.7,1,4.2c0.7-0.2,0.9,0.2,1,0.9
		c0.1,0.8,0.3,1.6,0.4,2.4c0.1,0.6,0.2,1.1,1,0.8c0.3,1.6,0.5,3.1,0.8,4.7c0.4-0.1,0.7-0.1,1.2-0.2c0.3,1.7,0.6,3.4,0.9,5.1
		c0.4-0.1,0.7-0.1,1.2-0.2c0.3,1.8,0.7,3.7,1.1,5.8c5.7-5.8,12.4-9,20.5-8.6c8.1,0.3,14.5,3.9,19.7,10.1c1.6-0.9,1.3-2.8,2.3-4.1
		c0.7,0.3,0.9-0.2,1.1-0.8c0.8-1.7,1.4-3.5,2.5-4.8c0.7-0.8,0.9-1.9,1.6-2.5c0.8-0.7,0.9-1.9,1.6-2.3c0.8-0.5,1.1-1,1.3-1.7
		c0-0.1,0-0.2,0-0.1c-1.7-0.5-3.4-1-4.9-1.6c-1.6-0.6-1.6-1.3-0.4-2.5c1.4-1.4,3-2.1,5.2-2c-0.6-0.7-1.2-1.2-1.6-1.9
		c-0.3-0.4-0.4-1-0.3-1.4c0.1-0.3,0.9-0.4,1.3-0.4c1.3,0.1,2.6,0.4,4,0.6c1.1-1.7,2.4-1.7,3.3,0.3c0.4,0.9,0.3,2.1,0.4,3.2
		c0.3-0.1,0.9-0.4,1.4-0.5c0.4-0.1,1-0.2,1.3,0c0.5,0.3,1.2,0.7,1.4,1.2c0.1,0.3-0.6,0.9-0.9,1.3c-0.1,0.1-0.3,0.2-0.3,0.2
		c0.4,1.3,0.9,2.5,1.3,3.7c0.1,0.4,0,1.1-0.3,1.3c-0.3,0.2-0.9,0-1.3-0.2c-0.8-0.4-1.5-1-2.4-1.6c0.5,1.8,0.5,3.5-0.3,5.1
		c-0.2,0.4-0.4,0.8-0.7,1.2c-0.7,0.8-1.3,0.9-1.9,0.1c-0.9-1.1-1.6-2.3-2.3-3.4c-0.3,0.4-0.7,0.9-1,1.5c-0.2,0.3-0.1,0.7-0.2,1.1
		c-0.1,0.3-0.2,0.5-0.3,0.7c-0.4,0.7-1.4,1.1-1,2.3c0.1,0.3-0.5,0.8-0.8,1.2c-0.3,0.4-0.6,0.8-1,1.3c0.2,0.1,0.4,0.3,0.7,0.4
		c-0.7,1-1.4,1.9-2.1,2.8C72.1,42,72.3,42.2,72.5,42.4z M49.5,55.6c-3.2,0-6.2,0-9.2,0c-0.2,0-0.6,0.5-0.6,0.7c0,2.8,0,5.6,0,8.3
		c0,0.7,0.4,0.7,0.9,0.7c2.4,0,4.9,0.1,7.3,0.1c0.5,0,1-0.1,1.7-0.1C49.5,62.1,49.5,59,49.5,55.6z M49.4,53.4
		c-0.5-2.8-0.9-5.5-1.4-8.1c0-0.2-0.5-0.5-0.8-0.5c-1.8,0-3.5,0-5.3,0c-0.6,0-0.9,0.2-1,0.8c-0.2,1.1-0.5,2.2-0.6,3.3
		c-0.2,1.5-0.4,3-0.5,4.5C43,53.4,46.1,53.4,49.4,53.4z M60.4,57.1c-2.9-0.5-5.7-0.9-8.6-1.4c0,3.3,0,6.4,0,9.8
		c2.8-0.5,5.5-1,8.3-1.6c0.2,0,0.3-0.4,0.3-0.7C60.4,61.3,60.4,59.3,60.4,57.1z M60.1,54.8c0-0.2,0.1-0.3,0.1-0.5
		c-0.4-2.4-0.9-4.9-1.3-7.3c-0.1-0.3-0.5-0.6-0.8-0.7c-1.6-0.4-3.2-0.8-4.7-1.1c-1-0.2-2-0.3-3-0.4c0.3,2.2,0.7,4.2,0.9,6.2
		c0.3,2.4,0.3,2.4,2.6,2.7c0.2,0,0.3,0,0.5,0.1C56.3,54.2,58.2,54.5,60.1,54.8z M29.2,54.9c2.8-0.4,5.3-0.8,7.8-1.2
		c0.2,0,0.5-0.4,0.5-0.6c0.4-2.6,0.7-5.3,1.1-7.9c0,0-0.1-0.1-0.1-0.1c-2.4,0.4-4.8,0.9-7.3,1.4c-0.2,0-0.4,0.3-0.4,0.4
		C30.4,49.5,29.8,52.1,29.2,54.9z M60.3,66.3c-3,0.4-5.6,0.8-8.2,1.2c-0.3,0-0.6,0.5-0.7,0.8c-0.4,2.2-0.8,4.5-1.1,6.8
		c0,0.2,0,0.3,0.1,0.8c2.6-0.6,5.1-1.1,7.6-1.6c0.2,0,0.5-0.3,0.5-0.4C59.1,71.4,59.6,68.9,60.3,66.3z M37.4,55.8
		c-1.9,0.3-3.7,0.6-5.5,0.9c-2.8,0.5-2.8,0.6-2.7,3.5c0,1.2-0.3,2.8,0.3,3.5c0.7,0.8,2.3,0.7,3.5,1c1.5,0.3,3,0.4,4.4,0.6
		C37.4,62,37.4,59,37.4,55.8z M39.9,67.7c0.2,1.6,0.4,3.1,0.7,4.5c0.2,1.2,0.3,2.8,1,3.3c0.8,0.6,2.4,0.3,3.6,0.3
		c2.6,0,2.6,0,3.2-2.5c0.1-0.3,0.2-0.7,0.2-1c0.2-1.5,0.4-3,0.6-4.6C46.1,67.7,43,67.7,39.9,67.7z M29.4,66.2c0.6,2.6,1.2,5,1.8,7.4
		c0.1,0.2,0.5,0.5,0.8,0.6c1.4,0.4,2.8,0.7,4.2,1c0.9,0.2,1.8,0.3,2.8,0.4c-0.4-2.5-0.8-4.8-1.1-7.1c-0.1-0.9-0.4-1.2-1.3-1.3
		c-2-0.2-3.9-0.6-5.8-0.9C30.4,66.4,30.1,66.3,29.4,66.2z M58,43.9c-0.9-1.6-1.6-3.1-2.4-4.6c-0.3-0.5-0.6-1-1-1.2
		c-2.3-1.1-4.6-1.8-7.2-2c0.8,2.1,1.5,4.1,2.2,6.1c0.1,0.2,0.3,0.4,0.5,0.4C52.6,43.1,55.2,43.5,58,43.9z M20.9,57.9
		c1.8-0.7,3.5-1.4,5.3-2c0.7-0.2,1.1-0.6,1.2-1.4c0.3-2,0.6-4,0.9-6.1c0-0.3,0.1-0.6,0.1-0.9c-0.1-0.1-0.2-0.2-0.2-0.2
		c-1.7,1-3.4,2-5.1,3.1c-0.2,0.1-0.4,0.3-0.5,0.6C21.7,53.2,21.1,55.4,20.9,57.9z M61.5,47.4c-0.1,0.4-0.1,0.5-0.1,0.6
		c0.3,2.3,0.7,4.6,1.1,6.9c0,0.2,0.2,0.6,0.4,0.7c1.9,0.7,3.8,1.4,5.8,2.2c-0.2-2.5-0.7-4.8-1.7-7c-0.1-0.1-0.2-0.2-0.3-0.3
		C64.9,49.5,63.3,48.5,61.5,47.4z M41.7,36.3c-0.1-0.1-0.1-0.2-0.2-0.3c-2.1,0.7-4.1,1.3-6.2,2c-0.1,0-0.3,0.1-0.3,0.3
		c-1.1,1.8-2.1,3.6-3.1,5.4c0.1,0.1,0.2,0.2,0.3,0.3c0.8-0.2,1.6-0.3,2.3-0.5c0.8-0.2,1.7-0.4,2.5-0.4c1.8,0,2.9-0.6,3.1-2.5
		c0.1-0.7,0.4-1.3,0.7-2C41,37.8,41.4,37.1,41.7,36.3z M57.6,76.8c-2.8,0.4-5.2,0.8-7.6,1.1c-0.2,0-0.5,0.2-0.6,0.4
		c-0.7,1.8-1.4,3.6-2.1,5.5c2.2-0.2,4.3-0.7,6.3-1.5c0.4-0.1,0.8-0.3,1-0.6C55.6,80.1,56.6,78.5,57.6,76.8z M68.5,63.2
		c-2,0.8-3.9,1.5-5.8,2.2c-0.2,0.1-0.4,0.3-0.4,0.5c-0.4,2.3-0.8,4.7-1.2,7.2c1.3-0.7,2.5-1.3,3.7-1.9c0.6-0.4,1.4-0.7,1.7-1.3
		C67.6,67.9,68.2,65.6,68.5,63.2z M28.6,73.3c-0.4-2.3-0.8-4.3-1-6.2c-0.1-1.1-0.5-1.7-1.6-1.9c-1.1-0.3-2.2-0.8-3.3-1.2
		c-0.5-0.2-0.9-0.4-1.4-0.6c-0.1,0.1-0.2,0.2-0.3,0.3c0.7,2,1.3,4,2,6.1c0.1,0.2,0.3,0.4,0.5,0.5C25,71.3,26.7,72.2,28.6,73.3z
		 M32.3,76.7c0.3,0.7,0.6,1.3,0.9,1.9c1.1,2.8,3.2,4.4,6.3,4.8c0.8,0.1,1.7,0.3,2.6,0.4c-0.8-2-1.4-3.7-2.2-5.5
		c-0.1-0.2-0.4-0.5-0.7-0.5C36.9,77.4,34.7,77.1,32.3,76.7z M47.4,42.5c-1-2.3-1.8-4.4-2.7-6.5c-0.2,0-0.3,0-0.5,0
		c-0.8,2.1-1.7,4.2-2.6,6.5C43.7,42.5,45.4,42.5,47.4,42.5z M27.1,57.8c-2.2,0.9-4.2,1.8-6.2,2.7c0,0.1,0,0.3,0,0.4
		c2,0.8,4,1.6,6.2,2.5C27.1,61.4,27.1,59.8,27.1,57.8z M68.5,60.7c0-0.2,0-0.3,0-0.5c-1.9-0.8-3.8-1.6-5.9-2.5c0,2,0,3.7,0,5.6
		C64.7,62.4,66.6,61.6,68.5,60.7z M47.3,78.2c-1.9,0-3.4,0-5.3,0c0.9,1.9,1.7,3.7,2.5,5.5c0.1,0,0.3,0,0.4,0
		C45.7,81.9,46.4,80.1,47.3,78.2z M25,46.1c0.1,0.1,0.2,0.2,0.3,0.3c1.3-0.5,2.5-1.1,3.8-1.6c0.1,0,0.2-0.1,0.2-0.2
		c0.5-1.3,1.1-2.6,1.6-3.9c-0.1-0.1-0.2-0.2-0.3-0.2C28.7,42.3,26.9,44.2,25,46.1z M64.6,46.6c-1.7-2.4-3.4-4.3-5.8-5.9
		c0.6,1.4,1,2.6,1.5,3.8c0.1,0.2,0.3,0.5,0.5,0.6C62,45.5,63.2,46,64.6,46.6z M25.9,74.4c-0.1,0.1-0.2,0.2-0.3,0.3
		c1.7,1.7,3.5,3.4,5.2,5c0.1-0.1,0.2-0.2,0.3-0.2c-0.5-1.1-0.9-2.2-1.4-3.3c-0.1-0.2-0.3-0.4-0.5-0.5C28.1,75.2,27,74.8,25.9,74.4z
		 M63.9,74.7c-2.9,0.3-4.7,1.7-5.1,5C60.7,77.9,62.3,76.3,63.9,74.7z"/>
	<path class="st6" d="M74.7,55.7l0,1c0,1.7,0,3.4,0,5.1c0,0.1,0,0.2,0,0.3c0,0,0,0,0.1,0c0.8,0.2,1.4,1.3,1.4,2c0,0.3,0,0.6,0,0.9
		c0.1,1.3,0.1,2.5-0.2,3.8c-1.8,7.7-6.1,13.7-12.8,17.8c-5.2,3.2-11.3,5-18.5,5.4c-9.4,0.6-17.5-2.1-24.1-7.9
		c-1.9-1.7-3.5-3.6-4.9-6L15,76.9l5.4-0.6c-0.8-1.1-1.6-2.2-2.4-3.3c-2.8-3.8-5.7-7.8-8-12.2C7.7,65,6.1,69.6,4.3,74.3
		c-0.5,1.3-0.9,2.6-1.4,3.9c0.1,0,0.1,0,0.2,0l0.6-0.1c1-0.1,2-0.2,3-0.4c0.1,0,0.3,0,0.4,0C8,77.7,8.6,78.2,9,79
		c0.3,0.8,0.7,1.6,1.1,2.2C14,87.9,20,92.8,27.7,95.8c7.9,3.1,16.4,3.5,25.9,1.4c9.3-2.1,16.3-6.1,21.3-12.3
		c4.7-5.8,7.3-11.5,7.8-17.6c0.3-3.4-0.4-6.2-2-8.3C79.2,56.9,77.3,55.9,74.7,55.7z"/>
	<path class="st6" d="M30.8,35.1c-1-0.8-1.9-1.5-2.8-2.2c1.4-1.8,2.7-3.5,4-5.1c0.2-0.3,0.7-0.4,1.1-0.4c3.2,0,6.4,0,9.5,0
		c0.4,0,0.8,0,1.1-0.1c0-4.8,0-9.5,0-13.9c-1-0.3-1.9-0.5-3-0.8c-1.4,1-2,1-3.3-0.3c-1.6,1.1-2.1,1.1-3.5-0.1
		c-0.1,0.1-0.2,0.2-0.4,0.3c-0.7,0.6-1.4,0.8-2.2,0.4c-0.8-0.4-1.2-1.2-1.1-2.1c0.3-2.3,1.6-4,3.3-5.5c6.3-5.4,17-4.9,22.8,0.9
		c1.2,1.2,2.1,2.7,2.3,4.4c0.1,1,0,1.9-1,2.5c-0.8,0.5-1.5,0.3-2.6-0.6c-1.7,1.2-2.3,1.2-3.6-0.1c-1.6,1.1-2.1,1.1-3.3,0.1
		c-1,0.3-1.9,0.6-2.9,0.9c0,4.4,0,9.1,0,13.9c0.4,0,0.7,0.1,1,0.1c2.8,0,5.6,0,8.4,0c0.5,0,1.1-0.3,1.4-0.6c2-2.2,4-4.5,6.1-6.8
		c0.9,0.8,1.7,1.6,2.7,2.4c-1.2,1.4-2.3,2.7-3.5,4c-0.9,1-1.7,2-2.7,3c-0.7,0.7-0.7,1.2-0.2,2c0.7,1.2,1.3,2.4,1.9,3.7
		c-1.1,0.6-2,1.1-3.2,1.7c-0.7-1.4-1.5-2.8-2.2-4.2c-0.5-1.1-1.2-1.5-2.4-1.5C46.8,31.1,40.9,31,35,31c-0.8,0-1.2,0.2-1.7,0.8
		C32.5,32.9,31.7,34,30.8,35.1z"/>
	<path class="st6" d="M96.1,53.4c0.2,3.6,1.4,6.7,3.1,9.9c-3.4,0-6.7,0-10.1,0C91.3,59.8,93,56.2,96.1,53.4z"/>
	<path class="st6" d="M73,51.8c-0.3-0.5-0.6-1-1-1.6c1.6-1.1,3.4-1.7,5.3-2c2.2-0.4,4.3-0.5,6.3,0.5c3.8,1.9,7.8,2.4,12,1
		c0.3,0.6,0.6,1.2,0.9,1.9c-2.5,1-5,1.3-7.6,0.9c-1.6-0.2-3.3-0.6-4.8-1.3c-3.5-1.7-6.8-1.3-10.1,0.2c-0.3,0.1-0.6,0.3-0.9,0.4
		C73.2,51.8,73.1,51.8,73,51.8z"/>
	<path class="st6" d="M100,78.7c-0.5,0.4-1,0.8-1.5,1.2c-0.2-0.1-0.3-0.2-0.5-0.4c-1.9-1.7-3.4-1.9-5.6-0.6c-3.4,2-7.1,2-11,1.4
		c0.1-0.5,0.2-0.8,0.2-1.2c0.1-0.7,0.4-0.8,1-0.8c2.2,0.3,4.4,0.4,6.6-0.4c0.9-0.3,1.8-0.8,2.7-1.2C94.8,75.4,98,76.1,100,78.7z"/>
	<path class="st6" d="M96.8,69.1c-0.3,0.5-0.5,1-0.7,1.4c-0.1,0.1-0.2,0.3-0.3,0.4c-0.1,0-0.2,0-0.3,0c-2-1.1-3.8-1-5.8,0
		c-0.8,0.4-1.9,0.3-3.1,0.4c0.2-0.8,0.2-1.3,0.4-1.7c0.1-0.2,0.3-0.4,0.5-0.5c0.9-0.3,1.8-0.3,2.6-0.7C92.6,67.3,94.6,68,96.8,69.1z
		"/>
	<path class="st6" d="M91.9,88.1c-0.5,0.4-1,0.8-1.5,1.2c-2.4-1.7-4.7-0.9-7.1,0.3c-0.3-0.6-0.6-1.1-1-1.7
		C85,85.6,89.8,85.7,91.9,88.1z"/>
</g>
</svg>
