<?xml version="1.0" encoding="utf-8"?>
<!-- Generator: Adobe Illustrator 22.1.0, SVG Export Plug-In . SVG Version: 6.00 Build 0)  -->
<svg version="1.1" id="Layer_1" xmlns="http://www.w3.org/2000/svg" xmlns:xlink="http://www.w3.org/1999/xlink" x="0px" y="0px"
	 viewBox="0 0 100 100" style="enable-background:new 0 0 100 100;" xml:space="preserve">
<style type="text/css">
	.st0{fill:#EDEDED;}
	.st1{fill:#CECECE;}
	.st2{fill:#FFFFFF;}
	.st3{fill:#2E373D;}
	.st4{fill:#E6E6E6;}
	.st5{fill:#DD800C;}
	.st6{fill:#DEDEDE;}
	.st7{fill:#D5D5D5;}
	.st8{fill:#B4B4B4;}
	.st9{fill:#A3A3A3;}
	.st10{fill:#DCDCDC;}
	.st11{fill:#CDCDCD;}
	.st12{fill:none;}
	.st13{fill:#EBBF00;}
	.st14{fill:#EDF4FC;}
	.st15{fill:#70D6F9;}
	.st16{fill:#D1956D;}
	.st17{fill:#F5C84C;}
	.st18{fill:#F9D0B4;}
	.st19{fill:#9BE5F9;}
	.st20{fill:#754E34;}
	.st21{fill:#87D147;}
	.st22{fill:#FC657E;}
</style>
<g>
	<path d="M22.3,51.1c0-11,0-21.9,0-32.9c0-0.9,0-0.9,0.9-0.9c16.8,0,36.8,0,53.6,0c0.9,0,0.9,0,0.9,0.9c0,21.8,0,43.6,0,65.3
		c0,0.2,0,0.4,0,0.5c-0.1,0.5,0.2,0.7,0.7,0.7c2.8,0,5.5,0,8.3,0c0.6,0,0.8,0.2,0.7,0.7c0,2.1,0,4.1,0,6.2c0,0.8,0,0.8-0.9,0.8
		c-21.9,0-46.9,0-68.8,0c-1.5,0-3.1,0-4.6,0c-0.5,0-0.7-0.2-0.7-0.6c0-2.1,0-4.3,0-6.4c0-0.5,0.2-0.6,0.7-0.6c2.8,0,5.5,0,8.3,0
		c0.8,0,0.8,0,0.8-0.8C22.3,73.1,22.3,62.1,22.3,51.1z M38.8,74.1c0,3.3,0,6.7,0,10c0,0.5,0.1,0.7,0.7,0.7c7,0,13.9,0,20.9,0
		c0.6,0,0.7-0.2,0.7-0.7c0-6.7,0-13.3,0-20c0-0.5-0.1-0.7-0.7-0.7c-7,0-13.9,0-20.9,0c-0.6,0-0.7,0.2-0.7,0.7
		C38.8,67.5,38.8,70.8,38.8,74.1z M28.9,26.9c0,1.3,0,2.6,0,3.9c0,0.4,0.1,0.6,0.6,0.6c1.3,0,2.7,0,4,0c0.5,0,0.6-0.2,0.6-0.6
		c0-2.7,0-5.3,0-8c0-0.4-0.2-0.6-0.6-0.6c-1.3,0-2.7,0-4,0c-0.5,0-0.6,0.1-0.6,0.6C28.9,24.2,28.9,25.6,28.9,26.9z M46.5,26.9
		c0-1.4,0-2.7,0-4.1c0-0.4-0.1-0.5-0.6-0.5c-1.4,0-2.7,0-4.1,0c-0.5,0-0.6,0.2-0.6,0.6c0,2.7,0,5.3,0,8c0,0.4,0.1,0.6,0.6,0.6
		c1.3,0,2.7,0,4,0c0.5,0,0.7-0.2,0.6-0.6C46.4,29.5,46.5,28.2,46.5,26.9z M58.8,26.9c0-1.3,0-2.7,0-4c0-0.4-0.1-0.6-0.6-0.6
		c-1.4,0-2.7,0-4.1,0c-0.4,0-0.6,0.1-0.6,0.5c0,2.7,0,5.4,0,8.1c0,0.4,0.2,0.6,0.6,0.6c1.3,0,2.7,0,4,0c0.5,0,0.6-0.2,0.6-0.6
		C58.8,29.6,58.8,28.2,58.8,26.9z M34.1,40.1c0-1.4,0-2.7,0-4.1c0-0.4-0.1-0.6-0.6-0.6c-1.4,0-2.7,0-4.1,0c-0.4,0-0.6,0.1-0.6,0.5
		c0,2.7,0,5.4,0,8.1c0,0.4,0.2,0.5,0.6,0.5c1.3,0,2.7,0,4,0c0.5,0,0.6-0.1,0.6-0.6C34.1,42.8,34.1,41.5,34.1,40.1z M41.2,40.1
		c0,1.3,0,2.7,0,4c0,0.4,0.2,0.6,0.6,0.6c1.3,0,2.7,0,4,0c0.5,0,0.6-0.1,0.6-0.6c0-2.7,0-5.3,0-8c0-0.4-0.2-0.6-0.6-0.6
		c-1.3,0-2.7,0-4,0c-0.5,0-0.6,0.2-0.6,0.6C41.2,37.4,41.2,38.8,41.2,40.1z M58.8,40.1c0-1.3,0-2.7,0-4c0-0.4-0.1-0.6-0.6-0.6
		c-1.3,0-2.7,0-4,0c-0.4,0-0.6,0.1-0.6,0.5c0,2.7,0,5.4,0,8.1c0,0.4,0.2,0.6,0.6,0.5c1.3,0,2.7,0,4,0c0.5,0,0.7-0.1,0.7-0.6
		C58.8,42.7,58.8,41.4,58.8,40.1z M65.9,40c0,1.4,0,2.7,0,4.1c0,0.4,0.1,0.5,0.6,0.5c1.4,0,2.7,0,4.1,0c0.4,0,0.6-0.1,0.6-0.5
		c0-2.7,0-5.4,0-8.1c0-0.4-0.1-0.5-0.6-0.5c-1.4,0-2.7,0-4.1,0c-0.5,0-0.6,0.2-0.6,0.6C65.9,37.4,65.9,38.7,65.9,40z M34.1,53.4
		c0-1.3,0-2.7,0-4c0-0.4-0.2-0.6-0.6-0.6c-1.3,0-2.7,0-4,0c-0.5,0-0.6,0.1-0.6,0.6c0,2.7,0,5.3,0,8c0,0.4,0.2,0.6,0.6,0.6
		c1.3,0,2.6,0,3.9,0c0.6,0,0.7-0.2,0.7-0.7C34.1,56,34.1,54.7,34.1,53.4z M41.2,53.3c0,1.4,0,2.7,0,4.1c0,0.4,0.1,0.6,0.6,0.6
		c1.3,0,2.7,0,4,0c0.5,0,0.6-0.1,0.6-0.6c0-2.7,0-5.3,0-8c0-0.4-0.2-0.6-0.6-0.6c-1.3,0-2.7,0-4,0c-0.5,0-0.7,0.2-0.6,0.6
		C41.2,50.7,41.2,52,41.2,53.3z M58.8,53.4c0-1.3,0-2.6,0-3.9c0-0.4-0.1-0.6-0.6-0.6c-1.3,0-2.7,0-4,0c-0.5,0-0.6,0.1-0.6,0.6
		c0,2.7,0,5.3,0,8c0,0.4,0.2,0.6,0.6,0.6c1.3,0,2.7,0,4,0c0.5,0,0.6-0.2,0.6-0.6C58.8,56,58.8,54.7,58.8,53.4z M71.1,53.4
		c0-1.3,0-2.7,0-4c0-0.4-0.1-0.6-0.6-0.6c-1.3,0-2.7,0-4,0c-0.5,0-0.6,0.1-0.6,0.6c0,2.7,0,5.3,0,8c0,0.4,0.2,0.6,0.6,0.6
		c1.3,0,2.7,0,4,0c0.5,0,0.6-0.1,0.6-0.6C71.1,56.1,71.1,54.7,71.1,53.4z M65.9,26.8c0,1.4,0,2.7,0,4.1c0,0.4,0.1,0.6,0.6,0.6
		c1.3,0,2.7,0,4,0c0.5,0,0.6-0.2,0.6-0.6c0-2.7,0-5.3,0-8c0-0.4-0.1-0.6-0.6-0.6c-1.3,0-2.7,0-4,0c-0.5,0-0.7,0.2-0.6,0.6
		C65.9,24.2,65.9,25.5,65.9,26.8z"/>
	<g>
		<path d="M35.1,10.5c0.9,0,1.7,0,2.6,0c0.4,0,0.6-0.1,0.8-0.5c0.2-0.7,0.4-1.4,0.7-2.1c0-0.1,0-0.4,0.2-0.4c0.2,0,0.2,0.2,0.2,0.4
			c0.2,0.7,0.5,1.3,0.6,2c0.1,0.5,0.4,0.7,0.9,0.6c0.7,0,1.3,0,2,0c0.1,0,0.4-0.1,0.4,0.1c0,0.2-0.2,0.2-0.3,0.3
			c-0.6,0.5-1.2,0.9-1.9,1.4c-0.2,0.2-0.3,0.3-0.2,0.6c0.3,0.9,0.6,1.8,0.9,2.6c-0.2,0.1-0.3,0-0.4-0.1c-0.7-0.5-1.3-0.9-2-1.4
			c-0.3-0.2-0.5-0.2-0.8,0c-0.6,0.5-1.2,0.9-1.8,1.3c-0.1,0.1-0.2,0.2-0.4,0.2c0-0.4,0.2-0.8,0.3-1.2c0.1-0.4,0.3-0.9,0.4-1.3
			c0.1-0.3,0.1-0.5-0.2-0.7c-0.7-0.5-1.5-1.1-2.2-1.6C35.1,10.6,35.1,10.6,35.1,10.5z"/>
		<path d="M32.9,10.6c-0.8,0.6-1.5,1.1-2.2,1.5c-0.4,0.3-0.5,0.5-0.3,1c0.3,0.8,0.5,1.6,0.8,2.5c0,0-0.1,0.1-0.1,0.1
			c-0.5-0.4-1-0.7-1.5-1.1c-1.1-0.8-1.1-0.8-2.2,0c-0.5,0.3-1,0.7-1.4,1c-0.2-0.2-0.1-0.3,0-0.4c0.2-0.8,0.5-1.5,0.8-2.3
			c0.1-0.3,0-0.4-0.2-0.6c-0.7-0.5-1.3-0.9-1.9-1.4c-0.1-0.1-0.3-0.1-0.2-0.3c0-0.1,0.2-0.1,0.4-0.1c0.7,0,1.5,0,2.2,0
			c0.4,0,0.6-0.1,0.7-0.5c0.2-0.7,0.5-1.4,0.7-2.2c0-0.1,0-0.3,0.2-0.3c0.1,0,0.1,0.2,0.2,0.3c0.2,0.7,0.5,1.4,0.7,2.1
			c0.1,0.5,0.4,0.6,0.9,0.6c0.8,0,1.5,0,2.3,0C32.6,10.5,32.6,10.6,32.9,10.6z"/>
		<path d="M47.4,15.7c0-0.4,0.1-0.6,0.2-0.9c0.2-0.6,0.4-1.2,0.6-1.7c0.1-0.4,0.1-0.6-0.3-0.8c-0.6-0.4-1.2-0.8-1.8-1.3
			c-0.1-0.1-0.3-0.1-0.3-0.4c0.6,0,1.2,0,1.8,0c1.4,0,1.4,0,1.8-1.3c0.2-0.6,0.4-1.2,0.6-1.7c0.3,0.1,0.3,0.4,0.3,0.5
			c0.2,0.7,0.5,1.4,0.7,2.1c0.1,0.3,0.3,0.4,0.6,0.4c0.7,0,1.5,0,2.2,0c0.2,0,0.4-0.1,0.6,0.1c-0.2,0.3-0.5,0.4-0.7,0.6
			c-0.5,0.3-0.9,0.7-1.4,1c-0.3,0.2-0.3,0.4-0.2,0.7c0.2,0.7,0.5,1.4,0.7,2.1c0.1,0.2,0.2,0.3,0,0.6c-0.5-0.4-1.1-0.8-1.6-1.2
			c-1-0.7-1-0.7-1.9,0C48.5,14.9,48,15.2,47.4,15.7z"/>
		<path d="M58.1,15.7c0-0.4,0.1-0.6,0.2-0.9c0.2-0.6,0.4-1.2,0.6-1.7c0.1-0.4,0.1-0.6-0.3-0.8c-0.6-0.4-1.2-0.8-1.8-1.3
			c-0.1-0.1-0.3-0.1-0.3-0.4c0.6,0,1.2,0,1.8,0c1.4,0,1.4,0,1.8-1.3c0.2-0.6,0.4-1.2,0.6-1.7C60.9,7.6,60.9,7.9,61,8
			c0.2,0.7,0.5,1.4,0.7,2.1c0.1,0.3,0.3,0.4,0.6,0.4c0.7,0,1.5,0,2.2,0c0.2,0,0.4-0.1,0.6,0.1c-0.2,0.3-0.5,0.4-0.7,0.6
			c-0.5,0.3-0.9,0.7-1.4,1c-0.3,0.2-0.3,0.4-0.2,0.7c0.2,0.7,0.5,1.4,0.7,2.1c0.1,0.2,0.2,0.3,0,0.6c-0.5-0.4-1.1-0.8-1.6-1.2
			c-1-0.7-1-0.7-1.9,0C59.2,14.9,58.7,15.2,58.1,15.7z"/>
		<path d="M68.8,15.7c0-0.4,0.1-0.6,0.2-0.9c0.2-0.6,0.4-1.2,0.6-1.7c0.1-0.4,0.1-0.6-0.3-0.8c-0.6-0.4-1.2-0.8-1.8-1.3
			c-0.1-0.1-0.3-0.1-0.3-0.4c0.6,0,1.2,0,1.8,0c1.4,0,1.4,0,1.8-1.3c0.2-0.6,0.4-1.2,0.6-1.7c0.3,0.1,0.3,0.4,0.3,0.5
			c0.2,0.7,0.5,1.4,0.7,2.1c0.1,0.3,0.3,0.4,0.6,0.4c0.7,0,1.5,0,2.2,0c0.2,0,0.4-0.1,0.6,0.1c-0.2,0.3-0.5,0.4-0.7,0.6
			c-0.5,0.3-0.9,0.7-1.4,1c-0.3,0.2-0.3,0.4-0.2,0.7c0.2,0.7,0.5,1.4,0.7,2.1c0.1,0.2,0.2,0.3,0,0.6c-0.5-0.4-1.1-0.8-1.6-1.2
			c-1-0.7-1-0.7-1.9,0C70,14.9,69.4,15.2,68.8,15.7z"/>
	</g>
</g>
</svg>
