<?xml version="1.0" encoding="utf-8"?>
<!-- Generator: Adobe Illustrator 22.1.0, SVG Export Plug-In . SVG Version: 6.00 Build 0)  -->
<svg version="1.1" id="Layer_1" xmlns="http://www.w3.org/2000/svg" xmlns:xlink="http://www.w3.org/1999/xlink" x="0px" y="0px"
	 viewBox="0 0 100 100" style="enable-background:new 0 0 100 100;" xml:space="preserve">
<style type="text/css">
	.st0{fill:#F2940C;}
</style>
<g>
	<circle class="st0" cx="89.5" cy="66.4" r="3"/>
	<path class="st0" d="M88,69.4H59.7c0-3.3-2.7-6-6-6s-6,2.7-6,6h-4.3v-18c-0.1-3.6-2.2-6.8-5.4-8.2l-4.1-1.8l-4,4.2l-4.5-4.5
		l-4.5,4.5l-4-4.2l-4.1,1.8c-3.2,1.4-5.3,4.6-5.3,8.2v21v1.5c0,2.5,2,4.5,4.5,4.5h1.5v14.9h10.4V79.8h3v13.5h10.5v-1
		c0.2,0.6,0.8,1,1.4,1h6c0.8,0,1.5-0.7,1.5-1.5v-1.5v-3H82v3v1.5c0,0.8,0.7,1.5,1.5,1.5h6c0.8,0,1.5-0.7,1.5-1.5v-4.5v-3V72.4
		C91,70.7,89.7,69.4,88,69.4z M37.4,84.9L37.4,84.9c0,0.2,0.1,0.3,0.1,0.5C37.5,85.2,37.4,85.1,37.4,84.9L37.4,84.9z M37.4,78.4
		v-4.5v-1.5h5.9v1.5c0,2.5-2,4.5-4.5,4.5H37.4z M38.8,63.4c1.7,0,3,1.3,3,3s-1.3,3-3,3s-3-1.3-3-3C35.8,64.7,37.1,63.4,38.8,63.4z
		 M46.3,81.3c-1.7,0-3-1.3-3-3s1.3-3,3-3s3,1.3,3,3S48,81.3,46.3,81.3z M71.6,82.8H56.7v-3h14.9V82.8z M71.6,76.9H56.7v-3h14.9V76.9
		z M79.1,78.3c0-1.7,1.3-3,3-3s3,1.3,3,3s-1.3,3-3,3S79.1,80,79.1,78.3z"/>
	<path class="st0" d="M82.3,52.7c-0.1-0.6-0.7-1.1-1.4-1.1H47.4c-0.6,0-1.2,0.4-1.4,1.1l-1.2,4.8h38.8L82.3,52.7z"/>
	<rect x="56.7" y="45.5" class="st0" width="14.9" height="6.3"/>
	<path class="st0" d="M13.4,27.7h1.7c0.1,1,0.4,2,0.9,3c2.5,5.1,8.7,7.3,13.9,4.9c3.1-1.5,5.3-4.4,5.8-7.9v-0.1h1.6c1.7,0,3-1.4,3-3
		s-1.3-2.9-3-3h-1.5v-2.9l2-6l1-3l-2.9-3H15l-3,3l1,3l2,6v3h-1.6c-1.7,0-3,1.4-3,3C10.4,26.4,11.8,27.7,13.4,27.7z"/>
	<circle class="st0" cx="38.8" cy="66.4" r="3.5"/>
</g>
</svg>
