<?xml version="1.0" encoding="utf-8"?>
<!-- Generator: Adobe Illustrator 22.1.0, SVG Export Plug-In . SVG Version: 6.00 Build 0)  -->
<svg version="1.1" id="Layer_1" xmlns="http://www.w3.org/2000/svg" xmlns:xlink="http://www.w3.org/1999/xlink" x="0px" y="0px"
	 viewBox="0 0 100 100" style="enable-background:new 0 0 100 100;" xml:space="preserve">
<style type="text/css">
	.st0{fill:#EDEDED;}
	.st1{fill:#CECECE;}
	.st2{fill:#FFFFFF;}
	.st3{fill:#2E373D;}
	.st4{fill:#E6E6E6;}
	.st5{fill:#DD800C;}
	.st6{fill:#F2940C;}
	.st7{fill:#DEDEDE;}
	.st8{fill:#D5D5D5;}
	.st9{fill:#B4B4B4;}
	.st10{fill:#A3A3A3;}
	.st11{fill:#DCDCDC;}
	.st12{fill:#CDCDCD;}
	.st13{fill:none;}
	.st14{fill:#EBBF00;}
	.st15{fill:#EDF4FC;}
	.st16{fill:#70D6F9;}
	.st17{fill:#D1956D;}
	.st18{fill:#F5C84C;}
	.st19{fill:#F9D0B4;}
	.st20{fill:#9BE5F9;}
	.st21{fill:#754E34;}
	.st22{fill:#87D147;}
	.st23{fill:#FC657E;}
	.st24{fill:#2051A0;}
</style>
<path class="st6" d="M72.2,41.5c-1.3-3.9,0.4-7.2,2.2-10.4c-0.2-0.2-0.3-0.3-0.5-0.5c-2.3,1.1-4.7,2.1-7.4,3.3
	c1.3-5.3,5.2-7.7,9.9-9.8c-1.7-0.9-2.9-1.6-4.6-2.6c3.1-0.9,5.6-0.8,8,0.2c1.9,0.8,3.3,0.9,5-0.4c1.2-0.9,3-1.2,4.5-1.7
	c0.5-0.1,1.1,0.1,1.6,0.2c-0.2,0.5-0.4,1-0.7,1.4c-0.4,0.5-0.8,1-1.3,1.6c2.3,0.9,4.4,1.6,6.4,2.6c2,1,3.6,2.6,4.7,4.8
	c-2.8,0.5-5-1.9-7.7-0.9c1,1.7,2.2,3.3,2.8,5c0.6,1.6,1,3.4,0.2,5.1c-2-1.8-3.9-3.5-5.8-5c-0.6-0.5-1.4-0.6-2.2-0.8
	c-1.4-0.2-2,0.3-1.8,1.9c1.3,10.8,1.8,21.6,1.3,32.4c-0.1,2.8,0,3,2.7,4.1c2.5,1,5,2.2,7.4,3.4c0.7,0.3,1.1,1.1,1.6,1.7
	c-0.7,0.3-1.4,0.7-2.1,0.8c-13.1,1.6-26.3,2.2-39.4,2.1c-11.2-0.1-22.4-0.1-33.6-0.5c-6.7-0.2-13.4-1.1-20.1-1.7
	c-0.6-0.1-1.1-0.5-1.6-0.8c0.4-0.5,0.6-1.3,1.1-1.6c2.5-1.3,5-2.5,7.6-3.5c2.9-1.1,2.9-1.1,2.9-4.2c0.1-8.4,0.2-16.8,0.4-25.2
	c0.1-2.4,0.5-4.8,0.8-7.2c0.2-1.5-0.5-2.1-1.9-1.8c-2.8,0.5-4.7,2.3-6.4,4.5c-0.4,0.6-1,1-1.8,1.9c-0.6-4.4,0.8-7.5,3.5-10.6
	c-2.8-1.3-5.1,1.3-7.9,0.8c2.4-4.7,6.5-6.1,11.2-7.2c-0.7-0.8-1.2-1.4-1.7-2c-0.3-0.4-0.4-0.8-0.6-1.3c0.5-0.1,1-0.3,1.4-0.2
	c1.6,0.5,3.4,0.8,4.7,1.7c1.7,1.2,3.1,1.2,5,0.4c2.4-1,5-1.1,8.1-0.3c-1.7,0.9-2.9,1.6-4.7,2.7c4.8,1.9,8.5,4.4,10.2,9.7
	c-2.8-1.2-5.1-2.2-7.5-3.2c-0.2,0.1-0.4,0.3-0.6,0.4c2,3.3,3.4,6.7,2.2,11c-0.7-1.2-1.2-1.9-1.7-2.6c-1.3-2-2.7-3.8-5-4.7
	c-2-0.8-2.8-0.3-2.9,1.9c-0.1,2.9-0.3,5.8,0.1,8.6c0.8,7.1,1.7,14.2,2.8,21.3c0.3,2.3,0.7,2.3,3.1,1.8c2.6-0.6,5.2-1.1,7.9-1.5
	c1.6-0.2,2.2-1,2.2-2.6C34,60.1,34,56,34,51.9c0-1.5-0.7-2-2.1-2.3c-1-0.2-2.4-0.8-2.7-1.6c-0.3-0.7,0.5-2.1,1.1-2.8
	c5.7-5.9,11.4-11.6,17.1-17.4c2.1-2.1,2.8-2.1,5,0.1c5.6,5.7,11.3,11.3,16.9,17.1c0.8,0.8,1.6,2.3,1.3,3.1c-0.2,0.8-1.8,1.3-2.9,1.6
	c-1.2,0.3-1.7,0.8-1.7,1.9c0,4.4,0,8.7,0,13.1c0,1.3,0.6,1.9,1.8,2.1c3,0.6,6,1.2,9,1.8c1.4,0.3,1.9-0.5,2.2-1.7c0.4-2,0.9-4,1.1-6
	c0.6-7.8,1.2-15.6,1.6-23.4c0.1-1-0.6-2.1-0.9-3.2c-1.1,0.4-2.6,0.5-3.4,1.2C75.7,37.3,74.2,39.3,72.2,41.5z M50,49.6
	c-3.2,0-6.4,0-9.6,0c-1.7,0-2.3,0.7-2.3,2.4c0.1,3.7,0.1,7.4,0.1,11.1c0,2.6,0.2,2.7,2.8,2.6c5.2-0.3,4.5,0,4.5-4.9
	c0.1-7.1-0.9-6,6.3-6.1c0.1,0,0.1,0,0.2,0c1.5-0.1,2.3,0.7,2.3,2.2c0,1.2,0,2.5,0,3.7c0,5.5-0.6,4.7,5.1,5.1
	c1.7,0.1,2.3-0.6,2.3-2.3c-0.1-3.8-0.1-7.7,0-11.5c0-1.8-0.8-2.4-2.5-2.4C56.3,49.7,53.1,49.6,50,49.6z"/>
</svg>
