<?xml version="1.0" encoding="utf-8"?>
<!-- Generator: Adobe Illustrator 22.1.0, SVG Export Plug-In . SVG Version: 6.00 Build 0)  -->
<svg version="1.1" id="Layer_1" xmlns="http://www.w3.org/2000/svg" xmlns:xlink="http://www.w3.org/1999/xlink" x="0px" y="0px"
	 viewBox="0 0 100 100" style="enable-background:new 0 0 100 100;" xml:space="preserve">
<style type="text/css">
	.st0{fill:#EDEDED;}
	.st1{fill:#CECECE;}
	.st2{fill:#FFFFFF;}
	.st3{fill:#2E373D;}
	.st4{fill:#E6E6E6;}
	.st5{fill:#DD800C;}
	.st6{fill:#F2940C;}
	.st7{fill:#DEDEDE;}
	.st8{fill:#D5D5D5;}
	.st9{fill:#B4B4B4;}
	.st10{fill:#A3A3A3;}
	.st11{fill:#DCDCDC;}
	.st12{fill:#CDCDCD;}
	.st13{fill:none;}
	.st14{fill:#EBBF00;}
	.st15{fill:#EDF4FC;}
	.st16{fill:#70D6F9;}
	.st17{fill:#D1956D;}
	.st18{fill:#F5C84C;}
	.st19{fill:#F9D0B4;}
	.st20{fill:#9BE5F9;}
	.st21{fill:#754E34;}
	.st22{fill:#87D147;}
	.st23{fill:#FC657E;}
	.st24{fill:#2051A0;}
</style>
<g>
	<path class="st6" d="M0,71c1.8,0.2,2.6-0.7,2.5-2.5c-0.1-1.6-0.1-3.2,0-4.7c0.1-4.4,2.9-7.2,7.4-7.4c3.8-0.1,3.9-0.1,4.7-4
		c0.8-3.4,1.5-6.8,2.3-10.2c0.7-3.2,2.2-4.3,5.4-4.3c12.5,0,25,0,37.5,0c2.7,0,4.5,1.2,5.8,3.5c2.2,4.2,4.7,8.2,6.8,12.5
		c1,2,2.4,2.6,4.5,2.6c4.2-0.2,8.5-0.1,12.7,0c5,0.1,7.5,2.7,7.6,7.6c0,1.4,0.1,2.8,0,4.2c-0.2,2.2,0.7,3.1,2.8,2.8c0,2.5,0,5,0,7.5
		c-3,2.8-5.3,2.3-6.7-1.5c-1.8-5-7.5-8.9-13.1-8.8c-5.8,0-11.6,4-13.2,9.4c-0.6,2.1-1.6,2.7-3.7,2.7c-8.8-0.1-17.7-0.1-26.5,0
		c-2.3,0-3.5-0.6-4.2-3c-1.5-5.2-7.7-9.2-13.4-9c-5.9,0.2-11.6,4.2-12.9,9.7c-0.5,2.1-1.6,2.4-3.4,2.3C1.8,80,0.9,79.5,0,79
		C0,76.3,0,73.6,0,71z M56,57.3c2.7,0,5.5,0,8.2,0c2.3,0,2.7-0.6,1.7-2.7c-1.2-2.8-2.6-5.6-3.8-8.4c-0.6-1.4-1.5-2.1-3.1-2.1
		c-3.9,0-7.8,0-11.7,0c-1.9,0-2.7,1-2.7,2.8c0,2.5,0,5,0,7.5c0,2.1,1,3,3.1,2.9C50.5,57.3,53.2,57.3,56,57.3z M30.9,44.1
		C30.9,44.1,30.9,44.1,30.9,44.1c-2.2,0-4.3,0-6.5,0c-1.4,0-2.2,0.7-2.2,2.1c0,2.9,0,5.8,0,8.7c0,1,0.4,1.8,1.4,2.1
		c1,0.3,1.2-0.6,1.7-1.2c1.9-2.4,4-2.7,6.5-1c0.7,0.5,1.3,1.1,1.9,1.6c1.4,1.3,3.2,0.9,4.7,0.5c1.5-0.4,1.4-1.9,1.4-3.1
		c0-2.4,0-4.8,0-7.2c0-1.7-0.8-2.6-2.6-2.6C35.1,44.1,33,44.1,30.9,44.1z"/>
	<circle class="st6" cx="41.8" cy="32.2" r="2.3"/>
	<path class="st6" d="M42.3,8c13.2,0.7,23.1,10.5,24,23.5c0.1,1.4,0,2.9-1.8,3c-1.8,0.2-2.1-1.3-2.2-2.7c-1.1-11.5-8.5-18.8-20-19.8
		c-1.4-0.1-2.9-0.4-2.7-2.2C39.9,8.2,41.3,8,42.3,8z"/>
	<path class="st6" d="M59,32.3c0,0.8-0.3,2-1.7,2.2c-1.6,0.2-2.1-1-2.3-2.3c-1.3-8.1-4.8-11.6-12.9-12.6c-1.3-0.2-2.4-0.6-2.4-2
		c0-1.6,1.3-2,2.6-2C50.6,15.4,58.8,23.4,59,32.3z"/>
	<path class="st6" d="M51.9,32.1c0,1.2-0.3,2.2-1.6,2.4c-1.5,0.3-2.1-0.7-2.3-2c-0.5-3.6-2.5-5.6-6.2-6c-1.3-0.1-2.3-0.8-2.1-2.2
		c0.2-1.3,1.2-1.7,2.4-1.7C46.9,22.6,51.7,27.2,51.9,32.1z"/>
	<path class="st6" d="M80.2,72.3c5.5,0,9.9,4.4,9.9,9.8c0,5.3-4.5,9.8-9.9,9.9c-5.3,0.1-9.8-4.5-9.8-9.9
		C70.3,76.5,74.6,72.3,80.2,72.3z M80.1,85.8c2,0,3.7-1.6,3.7-3.6c0-2-1.5-3.6-3.6-3.7c-2.2,0-3.6,1.3-3.6,3.5
		C76.5,84.1,78.1,85.7,80.1,85.8z"/>
	<path class="st6" d="M9.8,82c0-5.5,4.2-9.7,9.8-9.7c5.4,0,9.9,4.5,9.9,9.8c-0.1,5.3-4.7,9.8-10,9.8C14.2,92,9.8,87.5,9.8,82z
		 M19.6,85.8c2,0,3.6-1.5,3.7-3.5c0.1-2-1.4-3.6-3.4-3.7c-2.3-0.1-3.8,1.3-3.8,3.6C16.1,84.1,17.6,85.7,19.6,85.8z"/>
	<path class="st6" d="M31.6,49.6c0,2.1-1.9,4-4,3.9c-2.1-0.1-3.9-1.9-3.8-4.1c0.1-2.2,1.9-4,4-3.9C30,45.5,31.7,47.4,31.6,49.6z"/>
</g>
</svg>
