<?xml version="1.0" encoding="utf-8"?>
<!-- Generator: Adobe Illustrator 22.1.0, SVG Export Plug-In . SVG Version: 6.00 Build 0)  -->
<svg version="1.1" id="Layer_1" xmlns="http://www.w3.org/2000/svg" xmlns:xlink="http://www.w3.org/1999/xlink" x="0px" y="0px"
	 viewBox="0 0 100 100" style="enable-background:new 0 0 100 100;" xml:space="preserve">
<style type="text/css">
	.st0{fill:#EDEDED;}
	.st1{fill:#CECECE;}
	.st2{fill:#FFFFFF;}
	.st3{fill:#2E373D;}
	.st4{fill:#E6E6E6;}
	.st5{fill:#DD800C;}
	.st6{fill:#F2940C;}
	.st7{fill:#DEDEDE;}
	.st8{fill:#D5D5D5;}
	.st9{fill:#B4B4B4;}
	.st10{fill:#A3A3A3;}
	.st11{fill:#DCDCDC;}
	.st12{fill:#CDCDCD;}
	.st13{fill:none;}
	.st14{fill:#EBBF00;}
	.st15{fill:#EDF4FC;}
	.st16{fill:#70D6F9;}
	.st17{fill:#D1956D;}
	.st18{fill:#F5C84C;}
	.st19{fill:#F9D0B4;}
	.st20{fill:#9BE5F9;}
	.st21{fill:#754E34;}
	.st22{fill:#87D147;}
	.st23{fill:#FC657E;}
	.st24{fill:#2051A0;}
</style>
<g>
	<path class="st6" d="M50.1,39.7c11.9,0,23.7,0,35.6,0c2,0,2.4,0.3,3,2.2c0.4,1.4,0.8,2.7,1.2,4.1c0.5,1.7-0.2,2.7-2,2.7
		c-2.3,0-2.1-0.3-2.1,2.1c0,12.5,0,25,0,37.5c0,1.6,0,1.6-1.6,1.6c-1.6,0-3.3,0-4.9,0c-1.4,0-1.5,0-1.5-1.4c0-4.7,0-9.3,0-14
		c0-3.2-1.9-5.1-5.1-5.1c-1.2,0-2.5,0.1-3.7,0c-2.5-0.1-5.2,1.7-5.1,5.1c0.1,4.6,0,9.2,0,13.8c0,1.6,0,1.6-1.6,1.6
		c-15.8,0-31.6,0-47.4,0c-1.5,0-1.5,0-1.5-1.6c0-12.8,0-25.7,0-38.5c0-0.9-0.2-1.2-1.1-1.2c-1.8,0-2.5-1-2-2.7
		c0.4-1.5,0.9-2.9,1.4-4.4c0.5-1.6,0.9-1.9,2.6-1.9c10.3,0,20.6,0,30.9,0C46.7,39.7,48.4,39.7,50.1,39.7z M25.8,81.5
		c1.5,0,3,0,4.6,0c1.2,0,1.6-0.3,1.6-1.5c0-2,0-4.1,0-6.1c0-1-0.4-1.4-1.4-1.4c-3.1,0-6.3,0-9.4,0c-1,0-1.4,0.4-1.4,1.5
		c0,2,0,4.1,0,6.1c0,1.1,0.4,1.5,1.5,1.5C22.7,81.5,24.2,81.5,25.8,81.5z M46.1,81.5c1.6,0,3.2,0,4.8,0c0.9,0,1.3-0.4,1.3-1.3
		c0-2.1,0-4.2,0-6.4c0-1-0.4-1.4-1.4-1.4c-3.1,0-6.3,0-9.4,0C40.4,72.5,40,73,40,74c0,2,0,3.9,0,5.9c0,1.2,0.4,1.6,1.6,1.6
		C43.1,81.5,44.6,81.5,46.1,81.5z M25.9,66.1c1.5,0,3,0,4.6,0c1.2,0,1.6-0.4,1.6-1.5c0-2,0-4,0-6c0-1.1-0.4-1.5-1.5-1.5
		c-3.1,0-6.2,0-9.3,0c-1.1,0-1.5,0.4-1.5,1.5c0,2,0,4.1,0,6.1c0,1.1,0.4,1.5,1.5,1.5C22.8,66.1,24.4,66.1,25.9,66.1z M45.9,57.1
		c-1.6,0-3.2,0-4.8,0c-1.1,0-1.4,0.4-1.4,1.4c0,2,0,4.1,0,6.1c0,1.1,0.3,1.5,1.5,1.5c3.1,0,6.1,0,9.2,0c1.1,0,1.6-0.4,1.6-1.5
		c0-2,0-3.9,0-5.9c0-1.1-0.5-1.6-1.6-1.6C48.9,57.1,47.4,57.1,45.9,57.1z"/>
	<path class="st6" d="M61.3,10.1c7,0,14,0,21,0c1.6,0,2.6,0.5,3.3,1.9c0.9,1.8,1.9,3.6,2.9,5.3c0.9,1.6,0.2,2.7-1.6,2.7
		c-0.9,0-1.8,0-2.8,0c-0.8-0.1-1.1,0.3-1.1,1.1c0,4.5,0,9.1,0,13.6c0,1.5,0,1.5-1.5,1.5c-13.6,0-27.1,0-40.7,0c-1.4,0-1.4,0-1.4-1.5
		c0-4.5,0-9,0-13.5c0-1-0.3-1.3-1.3-1.2c-0.9,0.1-1.9,0-2.9,0c-1.6,0-2.2-1.2-1.4-2.5c1.1-2.1,2.3-4.1,3.4-6.2
		c0.4-0.8,1-1.2,1.9-1.2c0.4,0,0.8,0,1.2,0C47.4,10.1,54.3,10.1,61.3,10.1z M51.1,21.9c-1.6,0-3.1,0-4.7,0c-1.1,0-1.6,0.4-1.6,1.5
		c0,2,0,4,0,6c0,1,0.4,1.5,1.4,1.5c3.2,0,6.4,0,9.6,0c0.8,0,1.3-0.4,1.3-1.3c0-2.1,0-4.2,0-6.4c0-1-0.4-1.3-1.4-1.4
		C54.2,21.9,52.7,21.9,51.1,21.9z M71.5,21.9c-1.6,0-3.2,0-4.8,0c-0.9,0-1.4,0.4-1.4,1.3c0,2.1,0,4.2,0,6.4c0,0.9,0.5,1.4,1.4,1.4
		c3.2,0,6.4,0,9.6,0c0.9,0,1.3-0.5,1.3-1.4c0-2.1,0-4.2,0-6.3c0-1.1-0.3-1.4-1.5-1.4C74.6,21.9,73.1,21.9,71.5,21.9z"/>
	<g>
		<path class="st6" d="M16.8,36.2c-0.6,0-1.2,0-1.7,0c-0.5,0-0.5,0-0.4-0.6c0.3-1.7,0.5-3.5,1-5.2c0.2-0.8,0.4-1.6,0.7-2.4
			c0.1-0.1,0.1-0.3,0.2-0.4c0.2-0.3,0.4-0.3,0.6,0c0.3,0.5,0.5,1.2,0.7,1.8c0.6,2,1,4.1,1.3,6.2c0.1,0.5,0.1,0.5-0.5,0.5
			C17.9,36.2,17.4,36.2,16.8,36.2z"/>
		<path class="st6" d="M29.7,36.2c-0.6,0-1.2,0-1.7,0c-0.5,0-0.5,0-0.4-0.6c0.3-1.7,0.5-3.5,1-5.2c0.2-0.8,0.4-1.6,0.7-2.4
			c0.1-0.1,0.1-0.3,0.2-0.4c0.2-0.3,0.4-0.3,0.6,0c0.3,0.5,0.5,1.2,0.7,1.8c0.6,2,1,4.1,1.3,6.2c0.1,0.5,0.1,0.5-0.5,0.5
			C30.9,36.2,30.3,36.2,29.7,36.2z"/>
		<path class="st6" d="M23.2,36.2c-0.9,0-1.8,0-2.7,0c-0.7,0-0.8,0-0.7-0.8c0.4-2.7,0.8-5.3,1.5-7.9c0.3-1.2,0.6-2.5,1.1-3.7
			c0.1-0.2,0.2-0.4,0.3-0.6c0.3-0.5,0.6-0.5,0.9,0c0.5,0.8,0.8,1.8,1,2.7c0.9,3.1,1.5,6.3,2,9.5c0.1,0.8,0.1,0.8-0.7,0.8
			C25,36.2,24.1,36.2,23.2,36.2z"/>
	</g>
</g>
</svg>
