<?xml version="1.0" encoding="utf-8"?>
<!-- Generator: Adobe Illustrator 22.1.0, SVG Export Plug-In . SVG Version: 6.00 Build 0)  -->
<svg version="1.1" id="Layer_1" xmlns="http://www.w3.org/2000/svg" xmlns:xlink="http://www.w3.org/1999/xlink" x="0px" y="0px"
	 viewBox="0 0 64 64" style="enable-background:new 0 0 64 64;" xml:space="preserve">
<style type="text/css">
	.st0{fill:none;stroke:#000000;stroke-width:0.5781;stroke-miterlimit:10;}
	.st1{fill:#F2940C;}
	.st2{fill:#2051A0;}
	.st3{fill:#FFFFFF;}
</style>
<g>
	<g>
		<g>
			<g>
				<path class="st1" d="M44.6,19.4c0.4-0.5,0.8-1,1.1-1.5c4.8,3.9,9,12.5,6.8,21.8C50.2,49.4,41.6,56.5,31.8,57
					C21,57.5,13.4,50.7,10.9,45.4c7,11.4,22.5,13.5,32.5,5.2C52.9,42.8,53.8,28.5,44.6,19.4z"/>
			</g>
			<g>
				<path class="st2" d="M43.9,11.4c-1.8,0.7-3.5,1.5-5.4,2.2c0.9,0.6,1.7,1.1,2.5,1.6c0.6,0.4,1.1,0.5,1.8,0.4
					c0.5-0.1,1.1-0.2,1.6-0.3c0.1,0,0.3,0,0.4,0.1c0.2,0.1,0.5,0.3,0.7,0.5c-0.1,0.1-0.2,0.1-0.3,0.2c-0.8,0.4-1.7,0.9-2.5,1.3
					c-0.3,0.1-0.4,0.1-0.7,0c-3.5-2-6.9-3.9-10.4-5.9c-0.4-0.2-0.8-0.4-1.2-0.6c-0.3-0.2-0.7-0.4-1-0.6c-0.2-0.2-0.3-0.4-0.4-0.6
					c0.3-0.1,0.5-0.3,0.8-0.3c0.6,0.1,1.2,0.2,1.7,0.4c1.1,0.5,2.1,1,3.1,1.5c0.2,0.1,0.4,0.2,0.6,0.1c2.3-0.2,4.7-0.5,7-0.7
					c0.5,0,1,0.3,1.5,0.4C43.9,11.3,43.9,11.4,43.9,11.4z"/>
			</g>
			<g>
				<path class="st2" d="M33.3,13c1,0.6,2,1.2,3,1.8c-0.3,0.2-0.6,0.4-0.9,0.6c0,0-0.1,0.1-0.1,0c-0.4-0.3-1-0.5-1.3-0.9
					C33.6,14.3,33.5,13.7,33.3,13z"/>
			</g>
			<g>
				<g>
					<path class="st2" d="M34.5,9.2c0,0.1,0.1,0.2,0.1,0.4c0,0.2,0,0.3-0.2,0.5c0,0,0,0.1,0,0.1c0,0.1-0.1,0.2-0.1,0.3
						c0,0,0,0.1,0,0.1c0.1,0,0.2,0.1,0.2,0.1c0.1,0.1,0.2,0.1,0.3,0.1c0.1,0,0.1,0.1,0.1,0.2c0,0.1,0,0.2,0,0.3c0,0,0,0.1,0,0.1
						c0,0,0,0,0,0c0,0,0,0,0,0c0,0,0,0-0.1,0c0,0-0.1,0-0.1-0.1c-0.1,0-0.2-0.1-0.3-0.1c0,0,0-0.1-0.1-0.1c-0.2,0-0.3-0.1-0.5-0.2
						c0,0-0.1-0.1-0.1-0.1c0,0-0.1,0-0.1-0.1c0-0.1,0-0.1,0-0.1c-0.1-0.2-0.2-0.3-0.2-0.5c0-0.1,0-0.1-0.1-0.1c-0.1,0-0.1,0-0.1,0.1
						c0,0.1,0,0.2,0,0.2c0,0.1-0.2,0.2-0.3,0.1c-0.3-0.2-0.7-0.3-1-0.5c0,0,0,0,0,0c0,0,0,0,0,0c0,0,0,0,0,0c0,0,0,0,0,0
						c0-0.1,0.1-0.1,0.1-0.1c0,0,0.1,0,0.1,0c0.1,0,0.1,0,0.2-0.1c0.1-0.1,0.1-0.3,0.1-0.4c0-0.1,0-0.2-0.1-0.3c0,0,0,0-0.1-0.1
						c0-0.1-0.1,0-0.1,0c-0.1,0.1-0.2,0.2-0.3,0.3c-0.2,0.2-0.3,0.3-0.5,0.5c0,0-0.1,0-0.1,0c-0.1-0.1-0.2-0.1-0.2-0.1
						c-0.1,0-0.2-0.1-0.3-0.1c-0.1,0-0.1,0,0-0.1c0,0,0,0,0,0c0-0.1,0.1-0.1,0.1-0.1c0.1,0,0.1,0,0.2,0.1c0.1,0,0.1,0,0.2-0.1
						c0,0,0.1-0.1,0.1-0.2c0.1-0.2,0.2-0.3,0.3-0.4c0.1,0,0.1-0.1,0.1-0.1c0.1-0.1,0.2-0.3,0.4-0.4c0,0,0,0,0,0c0,0,0,0-0.1,0
						C32.1,8.1,32,8,32.1,7.7c0,0,0-0.1,0-0.1c0-0.2,0-0.3,0.1-0.4C32.4,7.1,32.5,7,32.6,7c0.1,0,0.2,0,0.3,0c0.2,0,0.4,0.1,0.5,0.3
						c0.1,0.1,0.1,0.3,0.1,0.4c0,0.2-0.1,0.3-0.3,0.4c0,0,0,0,0,0.1c0,0.1,0.1,0.1,0.1,0.2c0.1,0.1,0.1,0.2,0.2,0.3
						c0.1,0,0.2,0,0.2,0.1c0.1,0.1,0.3,0.1,0.5,0.2C34.3,9,34.5,9.1,34.5,9.2z M32.8,10C32.7,10.1,32.8,10.1,32.8,10
						c0.2,0.1,0.2,0.1,0.1,0c0-0.1,0-0.1-0.1-0.2C32.8,9.9,32.8,10,32.8,10z"/>
				</g>
			</g>
		</g>
		<g>
			<path class="st1" d="M36.8,17c-4.6,0.1-9.6,0-14.1,0c0.3-0.3,0.8-0.5,1.3-0.6c1.4-0.5,3.2-0.8,4.9-0.9c2.3-0.1,4.5,0.3,6.2,0.8
				c0.3,0.1,0.6,0.2,0.9,0.3C36.3,16.7,36.6,16.8,36.8,17z"/>
		</g>
		<g>
			<path class="st1" d="M41.5,19.8c-0.8,0-21.2,0.1-23.5,0.1c0-0.2,0.2-0.4,0.4-0.5c0.2-0.1,0.3-0.3,0.5-0.4
				c0.4-0.3,0.8-0.7,1.3-0.7c0.7-0.1,1.4,0,2.1,0c4.8,0,10.3,0.1,15.1,0.1c0.3,0,0.7,0,1.1,0c0.4,0,0.8-0.1,1,0
				c0.3,0.1,0.7,0.4,1,0.6c0.2,0.1,0.3,0.2,0.5,0.4C41.3,19.5,41.5,19.6,41.5,19.8z"/>
		</g>
		<g>
			<path class="st1" d="M44.2,22.4c-1.3,0-26.6,0.2-28.9,0.1c0-0.3,0.3-0.5,0.5-0.7c0.2-0.2,0.4-0.5,0.7-0.6c1.8,0,21.4,0,26.3,0
				c0.4-0.1,0.6,0.3,0.8,0.6C43.9,21.9,44.2,22.1,44.2,22.4z"/>
		</g>
		<g>
			<path class="st1" d="M45.4,23.9c0.3,0.3,0.7,0.8,0.8,1.3c-0.9,0-30.3,0.1-32.8,0.1c0.1-0.5,0.5-1,0.9-1.4
				C17,23.8,39.7,23.8,45.4,23.9z"/>
		</g>
		<g>
			<path class="st1" d="M46.9,26.6c0.3,0.4,0.5,0.8,0.6,1.4c-1.1,0.1-34.5,0-35.4-0.1c0-0.5,0.3-1,0.6-1.3
				C16.3,26.5,44.2,26.8,46.9,26.6z"/>
		</g>
		<g>
			<path class="st1" d="M48,29.4c0.1,0.4,0.3,0.9,0.3,1.3c-3.1,0.3-33.8,0-36.9-0.1c0-0.5,0.2-1,0.4-1.3C14.8,29.3,47,29.3,48,29.4z
				"/>
		</g>
		<g>
			<path class="st1" d="M48.5,32c0.1,0.4,0.2,1,0.1,1.4c-1.9,0.1-37.1,0.1-37.7-0.1c-0.1-0.4-0.1-1.3,0.2-1.5
				C14.9,31.9,46.6,32.1,48.5,32z"/>
		</g>
		<g>
			<path class="st1" d="M48.7,34.7c0.1,3-0.7,5.6-1.6,7.8c-1.9,4.4-5.1,7.5-9.5,9.6c-2.2,1-4.7,1.7-7.8,1.7c-3,0-5.6-0.7-7.8-1.7
				c-3.3-1.5-5.8-3.7-7.8-6.5c-0.6-0.9-1.2-2-1.7-3.1c-1-2.2-1.8-4.8-1.6-7.8C14.9,34.6,47.5,34.6,48.7,34.7z"/>
		</g>
		<g id="Coloplast_2_">
			<g>
				<path class="st3" d="M39.5,34.6h-3.8V21.8h-1.5v-2.5c0.6,0,1-0.2,1.4-0.7c0.4-0.5,0.6-0.9,0.6-1.4h3.3V34.6z"/>
			</g>
		</g>
		<g>
			<g>
				<rect x="35.7" y="22" class="st1" width="4.3" height="0.2"/>
			</g>
			<g>
				<rect x="35.6" y="24.4" class="st1" width="4.3" height="0.2"/>
			</g>
			<g>
				<rect x="35.6" y="27.2" class="st1" width="4.3" height="0.2"/>
			</g>
			<g>
				<rect x="35.4" y="29.9" class="st1" width="4.3" height="0.2"/>
			</g>
			<g>
				<rect x="35.4" y="32.6" class="st1" width="4.3" height="0.2"/>
			</g>
			<g>
				<path class="st1" d="M40.1,19.3v-0.2h-5c-0.4,0.2-0.8,0.2-0.8,0.2H40.1z"/>
			</g>
		</g>
	</g>
</g>
</svg>
