<?xml version="1.0" encoding="utf-8"?>
<!-- Generator: Adobe Illustrator 22.1.0, SVG Export Plug-In . SVG Version: 6.00 Build 0)  -->
<svg version="1.1" id="Layer_1" xmlns="http://www.w3.org/2000/svg" xmlns:xlink="http://www.w3.org/1999/xlink" x="0px" y="0px"
	 viewBox="0 0 984.5 556.7" style="enable-background:new 0 0 984.5 556.7;" xml:space="preserve">
<style type="text/css">
	.st0{fill:#F2940C;}
	.st1{fill:#2051A0;}
	.st2{fill:#FFFFFF;}
</style>
<g>
	<g>
		<path class="st1" d="M0,442.4h30.1c11.8,0,20.5,2.2,26.1,6.5c5.6,4.4,8.5,11.1,8.5,20.2c0,9.2-2.8,16.1-8.4,20.9
			s-13.7,7.1-24.3,7.1h-9.6v29.4H0V442.4z M22.5,457.5V482h5.9c4.5,0,7.9-1,10.2-3c2.3-2,3.4-4.9,3.4-8.8c0-4.2-1.1-7.4-3.4-9.5
			c-2.3-2.2-5.6-3.2-10.1-3.2H22.5z"/>
		<path class="st1" d="M90.7,442.4h27.1l31.9,84.2h-24l-6-17.8H87.3L81,526.5H58.8L90.7,442.4z M103.8,461.1l-10.9,31.6h21.4
			L103.8,461.1z"/>
		<path class="st1" d="M229,444.3l-2,17.5c-3.4-1.9-7-3.4-10.8-4.4c-3.8-1-7.6-1.5-11.6-1.5c-9.2,0-16.5,2.5-21.8,7.6
			c-5.3,5.1-8,12-8,20.9c0,8.5,2.4,15.2,7.1,20.3c4.7,5,11.1,7.5,19.1,7.5c1.7,0,3.3-0.1,4.7-0.2c1.4-0.2,2.8-0.4,4-0.7v-17.6h-13
			v-15.9h33.8v46.9c-4.4,1.3-9,2.2-13.8,2.8c-4.8,0.6-9.7,0.9-14.7,0.9c-16.4,0-28.8-3.7-37.3-11.1c-8.5-7.4-12.8-18.2-12.8-32.3
			s4.3-25.2,12.9-33.1c8.6-7.9,20.7-11.8,36.3-11.8c4.7,0,9.3,0.3,13.9,1C220,441.9,224.5,442.9,229,444.3z"/>
		<path class="st1" d="M246.7,442.4h58.5v15.8h-36v17h34v16h-34v19.2h37.4v16.2h-59.8V442.4z"/>
		<path class="st1" d="M463.7,442.4h64.2v16.8H507v67.4h-22.5v-67.4h-20.9V442.4z"/>
		<path class="st1" d="M537.4,442.4h33.5c11.1,0,19.4,1.8,24.8,5.4c5.4,3.6,8.1,9.1,8.1,16.5c0,5.4-1.4,9.9-4.3,13.4
			c-2.8,3.5-7,5.9-12.3,7c4.4,1.6,8,6.2,10.7,13.8v0.1l10.1,27.9h-23.4l-7.4-23c-1.2-3.7-2.8-6.3-4.9-7.7c-2.1-1.4-5.3-2.1-9.6-2.1
			h-3.3v32.9h-22V442.4z M559.4,457.2v21.6h7.9c4.9,0,8.5-0.9,10.9-2.6c2.4-1.8,3.6-4.4,3.6-7.9c0-3.8-1.4-6.6-4.1-8.4
			s-7-2.7-12.8-2.7H559.4z"/>
		<path class="st1" d="M638.9,442.4H666l31.9,84.2h-24l-6-17.8h-32.4l-6.3,17.8H607L638.9,442.4z M652,461.1l-10.9,31.6h21.4
			L652,461.1z"/>
		<path class="st1" d="M691.4,442.4h23.5l18.8,65.5l18.5-65.5h23l-28.6,84.2h-28.1L691.4,442.4z"/>
		<path class="st1" d="M783.6,442.4H842v15.8h-36v17h34v16h-34v19.2h37.4v16.2h-59.8V442.4z"/>
		<path class="st1" d="M857.7,442.4h22.5v67.5h33.8v16.6h-56.3V442.4z"/>
		<path class="st1" d="M980.4,443.3l-1.7,17.4c-3.4-1.5-6.7-2.6-9.9-3.3c-3.2-0.7-6.2-1.1-9.2-1.1c-4.5,0-8.1,0.7-10.6,2.2
			c-2.5,1.4-3.8,3.4-3.8,6c0,1.8,0.7,3.3,2,4.7s3.3,2.4,5.9,3.3c0.9,0.3,2.1,0.7,3.7,1.2c9.6,3.1,16,5.9,19.2,8.2
			c3,2.3,5.1,4.9,6.5,7.8c1.4,2.9,2.1,6.4,2.1,10.3c0,9.3-3.1,16.4-9.2,21.2c-6.2,4.9-15.1,7.3-26.8,7.3c-4.2,0-8.5-0.3-12.7-0.9
			c-4.2-0.6-8.5-1.5-12.6-2.7l1.9-18.8c3.9,1.8,7.8,3.1,11.5,4.1c3.7,0.9,7.3,1.4,10.6,1.4c4.4,0,7.9-0.8,10.5-2.5
			c2.6-1.7,3.9-3.9,3.9-6.8c0-3.5-4.1-6.7-12.3-9.5c-2-0.7-3.5-1.2-4.6-1.6c-8-2.9-13.7-6.2-17.2-10c-3.4-3.8-5.2-8.7-5.2-14.6
			c0-8.5,3-14.9,9.1-19.5c6-4.5,14.7-6.8,26-6.8c4.1,0,8.1,0.2,12,0.7C973.2,441.5,976.8,442.3,980.4,443.3z"/>
	</g>
	<g>
		<path class="st0" d="M425.7,441.4c1.2-1.5,2.3-3.1,3.5-4.7c14.7,12,27.7,38.3,20.8,66.9c-7.2,29.8-33.6,51.6-63.5,53
			c-33.1,1.6-56.4-19.4-64.1-35.4c21.4,35,69,41.4,99.6,16.1C451,513.2,453.9,469.3,425.7,441.4z"/>
	</g>
	<g>
		<path class="st0" d="M378.8,443.6h17.5v84.2h-20.5v-61.5l-15.6,10.7l-10-14.6L378.8,443.6z"/>
	</g>
	<g>
		<g>
			<g>
				<g>
					<path class="st0" d="M597.9,104.3c3.2-4.2,6.4-8.5,9.6-12.8c40.3,32.9,75.7,104.8,56.9,183.2c-19.6,81.6-92,141.2-173.9,145.2
						c-90.5,4.4-154.5-53.1-175.4-97c58.6,96,189,113.5,272.7,44C667.3,300.9,675.3,180.6,597.9,104.3z"/>
				</g>
				<g>
					<path class="st1" d="M592.1,37.3c-14.9,6.2-29.8,12.4-45.3,18.9c7.5,4.8,14.7,8.9,21.3,13.8c4.7,3.5,9.3,4.5,15,3
						c4.5-1.2,9.2-1.6,13.8-2.2c1.2-0.1,2.6,0.3,3.6,0.9c2.1,1.2,3.9,2.7,6.2,4.3c-0.9,0.6-1.7,1.1-2.4,1.6c-7,3.7-14.1,7.2-21,11
						c-2.1,1.2-3.6,0.9-5.5-0.2c-29.1-16.5-58.3-32.9-87.4-49.3c-3.3-1.9-6.8-3.5-10.1-5.5c-2.8-1.6-5.7-3.2-8.1-5.3
						c-1.6-1.3-2.3-3.6-3.5-5.4c2.2-0.9,4.5-2.8,6.6-2.6c4.8,0.6,9.8,1.6,14.2,3.6c8.9,3.9,17.4,8.6,26.1,12.8
						c1.6,0.8,3.6,1.4,5.4,1.2c19.6-1.9,39.1-4.2,58.7-5.7c4.1-0.3,8.4,2.3,12.7,3.6C592.2,36.4,592.2,36.9,592.1,37.3z"/>
				</g>
				<g>
					<path class="st1" d="M502.7,50.7c8.7,5.4,16.5,10.2,24.8,15.4c-2.8,1.9-5.3,3.6-7.9,5.4c-0.3,0.2-0.8,0.5-1,0.4
						c-3.7-2.3-8.2-4.1-10.7-7.3C505.3,60.9,504.6,55.9,502.7,50.7z"/>
				</g>
				<g>
					<g>
						<path class="st1" d="M513.2,18.8c0.4,0.9,0.6,1.9,0.7,3c0.1,1.5-0.2,2.8-1.3,3.8c-0.2,0.2-0.3,0.4-0.4,0.7
							c-0.3,0.9-0.7,1.8-1.1,2.7c-0.2,0.4-0.1,0.7,0.3,0.8c0.7,0.3,1.4,0.7,1.9,1.2c0.7,0.7,1.5,1.1,2.5,1.3
							c0.8,0.1,1.1,0.4,1.1,1.3c0.1,0.9-0.1,1.8-0.3,2.6c-0.1,0.3-0.2,0.6,0.2,0.8c0.1,0,0.2,0.2,0.1,0.3c-0.1,0.1-0.2,0.1-0.3,0.1
							c-0.2-0.1-0.3-0.1-0.4-0.2c-0.2-0.3-0.5-0.3-0.8-0.4c-0.8-0.2-1.5-0.6-2.2-1c-0.3-0.1-0.4-0.4-0.7-0.5c-1.4-0.3-2.6-1-3.8-1.7
							c-0.4-0.2-0.8-0.5-1.3-0.6c-0.2,0-0.6-0.2-0.5-0.5c0.3-0.4,0-0.6-0.2-0.9c-0.9-1.3-1.7-2.6-1.6-4.2c0-1,0-1-0.9-1.2
							c-0.6-0.1-0.7-0.1-0.6,0.5c0.1,0.6,0.2,1.3,0,1.9c-0.3,1-1.6,1.9-2.8,1.3c-2.9-1.4-5.8-2.8-8.7-4.1c-0.1,0-0.1,0-0.1-0.1
							c-0.1-0.1-0.2-0.2-0.2-0.3c0-0.2,0.2-0.2,0.3-0.2c0.2,0,0.3-0.1,0.4-0.3c0.3-0.7,0.5-0.8,1.2-0.6c0.2,0,0.4,0.1,0.7,0.1
							c0.7,0.1,1,0,1.3-0.7c0.5-1,0.6-2.1,1-3.2c0.3-1.1-0.1-1.9-0.7-2.6c-0.1-0.2-0.3-0.3-0.4-0.5c-0.3-0.5-0.6-0.4-0.9-0.1
							c-0.8,0.7-1.4,1.6-2.2,2.4c-1.3,1.4-2.5,2.8-4.2,3.8c-0.2,0.1-0.5,0.2-0.7,0.1c-0.6-0.5-1.3-0.6-1.9-0.9
							c-0.8-0.4-1.5-0.8-2.3-1.1c-0.8-0.3-0.8-0.3-0.4-1c0,0,0.1-0.1,0.1-0.1c0.3-0.5,0.7-0.6,1.2-0.5c0.5,0.2,1.1,0.3,1.6,0.5
							c0.8,0.2,1.1,0.2,1.5-0.4c0.3-0.4,0.6-0.9,0.9-1.3c0.7-1.3,1.5-2.5,2.7-3.3c0.5-0.3,0.9-0.8,1.2-1.3c1-1.2,1.9-2.5,3.2-3.3
							c0.2-0.1,0.2-0.2-0.1-0.3c-0.2-0.1-0.4-0.1-0.6-0.2c-1.8-0.8-2.4-2.3-1.5-4.1c0.1-0.3,0.4-0.6,0.3-0.9c0-1.3,0.3-2.4,1-3.6
							c0.7-1.1,1.5-1.6,2.7-1.7c0.9-0.1,1.8,0,2.7,0.1c1.8,0.2,3.2,1,3.9,2.8c0.4,1.2,0.9,2.3,0.6,3.6c-0.3,1.5-1.1,2.6-2.4,3.5
							c-0.3,0.2-0.3,0.4-0.1,0.6c0.3,0.4,0.5,0.9,0.8,1.4c0.5,0.8,1,1.7,1.9,2.2c0.6,0.4,1.4,0.4,2.1,0.6c1.3,0.4,2.6,0.6,3.9,1.3
							C511.6,16.6,512.6,17.5,513.2,18.8z M498.2,25.6c-0.1,0.4,0,0.5,0.4,0.6c0.9,0.1,0.9,0.1,0.6-0.8c-0.2-0.4-0.4-0.9-0.6-1.3
							C498.5,24.5,498.4,25.1,498.2,25.6z"/>
					</g>
				</g>
			</g>
			<g>
				<path class="st0" d="M532.3,84.1c-38.3,0.6-80.3,0.3-118.4-0.2c2.8-2.5,7-3.8,11-5.2c11.7-3.9,26.5-6.8,41-7.5
					c19.6-0.9,37.4,2.5,52.4,7.1c2.5,0.8,4.9,1.8,7.3,2.6C528,81.7,530.8,82.2,532.3,84.1z"/>
			</g>
			<g>
				<path class="st0" d="M571.9,107.6c-6.3,0-178.1,1.2-197.1,0.4c-0.3-1.8,1.8-3,3.2-4.1c1.3-1.1,2.8-2.2,4.3-3.2
					c3.4-2.3,6.9-5.5,11-6c5.5-0.7,11.8,0,18.1,0c40.7-0.2,86.5,0.5,127,0.6c2.8,0,6.1-0.1,9-0.2c2.9-0.1,6.4-0.4,8.8,0.2
					c2.8,0.8,6.1,3.7,8.6,5.4c1.5,1,2.8,2,4.1,3C570,104.7,571.7,105.8,571.9,107.6z"/>
			</g>
			<g>
				<path class="st0" d="M594.2,129.3c-11.2,0.1-223.4,1.3-243.1,0.6c0.3-2.5,2.8-4.4,4.5-6.2c1.8-1.9,3.4-4.3,5.8-5.4
					c15.5,0,180.1-0.1,221.3,0c3.5-0.6,5,2.2,7.1,4.7C591.9,125.3,594.1,127.1,594.2,129.3z"/>
			</g>
			<g>
				<path class="st0" d="M604.5,142.2c2.7,2.8,5.6,6.6,6.4,10.5c-7.4,0.3-254.8,1.1-275.9,0.4c0.9-4.5,4.1-8.7,7.3-11.6
					C365.9,140.8,556.4,141.5,604.5,142.2z"/>
			</g>
			<g>
				<path class="st0" d="M617.4,164.7c2.3,3.2,3.9,7,4.9,11.4c-9.2,1.1-289.9,0.3-297.2-0.6c0.4-4,2.2-8.5,4.7-11.2
					C359.9,163.5,594.1,166.1,617.4,164.7z"/>
			</g>
			<g>
				<path class="st0" d="M626.2,188.2c1.3,3.1,2.5,7.2,2.2,11.2c-25.9,2.6-284.3,0.3-310.3-0.6c-0.2-4.1,1.3-8.4,3.2-11.2
					C347.6,187,617.7,187.7,626.2,188.2z"/>
			</g>
			<g>
				<path class="st0" d="M631,210.3c1.2,3,1.7,8.7,1.1,12c-15.7,0.9-311.4,0.5-316.8-0.7c-0.6-3.5-1.2-10.6,1.5-12.2
					C348.1,209.2,614.7,210.7,631,210.3z"/>
			</g>
			<g>
				<path class="st0" d="M632,232.9c0.7,25.4-5.5,47.2-13.8,65.5c-16.4,36.6-43,63.4-79.5,80.4c-18.4,8.5-39.7,14.4-65.5,14.4
					c-25.3,0-47.2-5.9-65.8-14.2c-27.8-12.5-49-30.8-65.5-54.4c-5.5-7.8-9.9-16.7-14-26c-8-18.4-14.7-40.1-13.5-65.5
					C348.3,232.3,622.1,232.1,632,232.9z"/>
			</g>
			<g id="Coloplast_1_">
				<g>
					<path class="st2" d="M555.2,231.8h-32.1V124.6h-12.2v-21.3c4.7,0,8.6-2,11.8-6c3.2-4,4.8-7.9,4.8-11.7h27.7V231.8z"/>
				</g>
			</g>
			<g>
				<g>
					<rect x="523" y="126.1" class="st0" width="36" height="2"/>
				</g>
				<g>
					<rect x="522.2" y="146.3" class="st0" width="36" height="2"/>
				</g>
				<g>
					<rect x="522.2" y="169.4" class="st0" width="36" height="2"/>
				</g>
				<g>
					<rect x="520.8" y="192" class="st0" width="36" height="2"/>
				</g>
				<g>
					<rect x="520.8" y="215.1" class="st0" width="36" height="2"/>
				</g>
				<g>
					<path class="st0" d="M560.2,103.3v-2h-42.1c-3.5,1.8-6.4,2-6.4,2H560.2z"/>
				</g>
			</g>
		</g>
	</g>
</g>
</svg>
