<svg xmlns="http://www.w3.org/2000/svg" version="1.1" xmlns:xlink="http://www.w3.org/1999/xlink" xmlns:svgjs="http://svgjs.com/svgjs" width="512" height="512" x="0" y="0" viewBox="0 0 512 512" style="enable-background:new 0 0 512 512" xml:space="preserve" class=""><g><g id="XMLID_1_"><g id="XMLID_3040_"><path id="XMLID_1372_" d="m435.3 222h34v285h-34z" fill="#bebf25" data-original="#bebf25"></path><g id="XMLID_681_"><path id="XMLID_2133_" d="m251 24h10v76h-10z" fill="#db332a" data-original="#db332a" class=""></path></g><g fill="#db332a"><path id="XMLID_1377_" d="m256 43v-38l38 19z" fill="#db332a" data-original="#db332a" class=""></path><path id="XMLID_2134_" d="m256 48c-.9 0-1.8-.3-2.6-.7-1.5-.9-2.4-2.5-2.4-4.3v-38c0-1.7.9-3.3 2.4-4.3 1.5-.9 3.3-1 4.9-.2l38 19c1.7.8 2.8 2.6 2.8 4.5s-1.1 3.6-2.8 4.5l-38 19c-.8.3-1.5.5-2.3.5zm5-34.9v21.8l21.8-10.9z" fill="#db332a" data-original="#db332a" class=""></path><path id="XMLID_1381_" d="m256 75c-42.3 49.9-100 84.4-163.9 98.2l-87.1 18.8h502l-87.1-18.8c-63.9-13.8-121.6-48.3-163.9-98.2z" fill="#db332a" data-original="#db332a" class=""></path></g><path id="XMLID_1380_" d="m256 75c-23.3 49.4-64.6 88-115.5 107.8l-23.8 9.2h278.7l-23.8-9.2c-51-19.8-92.3-58.4-115.6-107.8z" fill="#f8d700" data-original="#f8d700" class=""></path><path id="XMLID_1379_" d="m256 75-3.6 28.6c-4 31.8-15.6 62.1-33.9 88.4h75c-18.2-26.3-29.8-56.6-33.9-88.4z" fill="#db332a" data-original="#db332a" class=""></path><path id="XMLID_1378_" d="m5 192h502v30h-502z" fill="#2d1123" data-original="#2d1123"></path><path id="XMLID_1375_" d="m42.7 222h34v285h-34z" fill="#bebf25" data-original="#bebf25"></path><path id="XMLID_1905_" d="m42.7 222h34v45h-34z" fill="#a38b21" data-original="#a38b21"></path><path id="XMLID_1933_" d="m435.3 222h34v45h-34z" fill="#a38b21" data-original="#a38b21"></path><path id="XMLID_1374_" d="m22.4 473h74.6v34h-74.6z" fill="#2d1123" data-original="#2d1123"></path><path id="XMLID_1373_" d="m415 473h74.6v34h-74.6z" fill="#2d1123" data-original="#2d1123"></path><g id="XMLID_1364_"><path id="XMLID_1371_" d="m42.7 256h-3.7c-18.8 0-34-15.2-34-34h71.7c0 18.8-15.2 34-34 34z" fill="#db332a" data-original="#db332a" class=""></path><path id="XMLID_1370_" d="m114.4 256h-3.7c-18.8 0-34-15.2-34-34h71.7c0 18.8-15.2 34-34 34z" fill="#f8d700" data-original="#f8d700" class=""></path><path id="XMLID_1369_" d="m186.1 256h-3.7c-18.8 0-34-15.2-34-34h71.7c0 18.8-15.2 34-34 34z" fill="#db332a" data-original="#db332a" class=""></path><path id="XMLID_1368_" d="m257.9 256h-3.7c-18.8 0-34-15.2-34-34h71.7c0 18.8-15.3 34-34 34z" fill="#f8d700" data-original="#f8d700" class=""></path><path id="XMLID_1367_" d="m329.6 256h-3.7c-18.8 0-34-15.2-34-34h71.7c0 18.8-15.3 34-34 34z" fill="#db332a" data-original="#db332a" class=""></path><path id="XMLID_1366_" d="m401.3 256h-3.7c-18.8 0-34-15.2-34-34h71.7c0 18.8-15.2 34-34 34z" fill="#f8d700" data-original="#f8d700" class=""></path><path id="XMLID_1365_" d="m473 256h-3.7c-18.8 0-34-15.2-34-34h71.7c0 18.8-15.2 34-34 34z" fill="#db332a" data-original="#db332a" class=""></path></g><g id="XMLID_680_"><path id="XMLID_2132_" d="m126 298.6-50-21.6h-33v-10h34c.7 0 1.4.1 2 .4l51 22z" fill="#f8d700" data-original="#f8d700" class=""></path></g><g id="XMLID_677_"><path id="XMLID_2131_" d="m77 385h-34v-10h33l50.1-21.6 4 9.2-51 22c-.7.3-1.4.4-2.1.4z" fill="#f8d700" data-original="#f8d700" class=""></path></g><g id="XMLID_674_"><path id="XMLID_2130_" d="m469 385h-34c-.7 0-1.4-.1-2-.4l-51-22 4-9.2 50 21.6h33z" fill="#f8b700" data-original="#f8b700"></path></g><g id="XMLID_673_"><path id="XMLID_2129_" d="m386 298.6-4-9.2 51-22c.6-.3 1.3-.4 2-.4h34v10h-33z" fill="#f8b700" data-original="#f8b700"></path></g><path id="XMLID_2120_" d="m389 294c0-2.8-2.2-5-5-5h-256c-2.8 0-5 2.2-5 5v64c0 2.8 2.2 5 5 5h256c2.8 0 5-2.2 5-5z" fill="#f8b700" data-original="#f8b700"></path><path id="XMLID_905_" d="m336 289h-208c-2.8 0-5 2.2-5 5v64c0 2.8 2.2 5 5 5h162.5c27.9 0 50.5-22.6 50.5-50.5v-18.5c0-2.8-2.2-5-5-5z" fill="#f8d700" data-original="#f8d700" class=""></path><g id="XMLID_672_"><path id="XMLID_2128_" d="m171 321h170v10h-170z" fill="#db332a" data-original="#db332a" class=""></path></g></g></g></g></svg>