<svg xmlns="http://www.w3.org/2000/svg" version="1.1" xmlns:xlink="http://www.w3.org/1999/xlink"
    xmlns:svgjs="http://svgjs.com/svgjs" width="100" height="100" x="0" y="0" viewBox="0 0 512 512"
    style="enable-background:new 0 0 512 512" xml:space="preserve" class="">
    <g>
        <g>
            <g>
                <path
                    d="m488.334 436.245h-464.668c-8.692 0-15.739-7.046-15.739-15.739v-329.012c0-8.692 7.046-15.739 15.739-15.739h464.669c8.692 0 15.739 7.046 15.739 15.739v329.012c-.001 8.692-7.048 15.739-15.74 15.739z"
                    fill="#fe255f" data-original="#fe255f"></path>
                <path
                    d="m504.07 91.49v329.02c0 8.69-7.04 15.73-15.74 15.73h-464.66c-8.7 0-15.74-7.04-15.74-15.73v-30.01c33.81 10.57 69.77 16.27 107.06 16.27 188.71 0 343.35-145.87 357.31-331.01h16.03c8.7 0 15.74 7.04 15.74 15.73z"
                    fill="#e01152" data-original="#e01152" class=""></path>
                <path
                    d="m504.07 299.98v120.53c0 8.69-7.04 15.73-15.74 15.73h-225.09c95.64-16.41 179.98-65.89 240.83-136.26z"
                    fill="#c40047" data-original="#c40047" class=""></path>
                <path
                    d="m375.528 441.426h-34.953c-6.519 0-11.804-5.285-11.804-11.804v-347.244c0-6.519 5.285-11.804 11.804-11.804h34.953c6.519 0 11.804 5.285 11.804 11.804v347.243c0 6.52-5.285 11.805-11.804 11.805z"
                    fill="#ffc751" data-original="#ffc751" class=""></path>
                <path
                    d="m387.334 146.17v-63.792c0-6.516-5.288-11.804-11.804-11.804h-11.788c4.745 7.059 7.523 15.566 7.523 24.71 0 23.868-18.863 43.329-42.495 44.289v6.597z"
                    fill="#ffaf40" data-original="#ffaf40" class=""></path>
                <path
                    d="m387.334 317.31v112.312c0 6.516-5.288 11.804-11.804 11.804h-34.956c-6.516 0-11.804-5.288-11.804-11.804v-13.173c25.835-5.005 50.781-45.343 58.288-97.163.095-.662.189-1.315.276-1.976z"
                    fill="#ffaf40" data-original="#ffaf40" class=""></path>
                <path
                    d="m0 201.889v-34.953c0-6.519 5.285-11.804 11.804-11.804h488.392c6.519 0 11.804 5.285 11.804 11.804v34.953c0 6.519-5.285 11.804-11.804 11.804h-488.392c-6.519 0-11.804-5.285-11.804-11.804z"
                    fill="#ffc751" data-original="#ffc751" class=""></path>
                <path
                    d="m285.837 155.131h-34.203c.173 1.684.26 3.392.26 5.123 0 25.701-18.926 46.98-43.604 50.647 2.054 1.747 4.714 2.794 7.618 2.794h69.93v-58.564z"
                    fill="#ffaf40" data-original="#ffaf40" class=""></path>
                <g>
                    <g>
                        <path
                            d="m226.919 301.702c-2.262-6.455.731-13.611 6.958-16.441 20.705-9.409 38.518-23.89 51.983-42.367 13.099-17.973 21.401-38.671 24.332-60.451.913-6.788 6.879-11.742 13.722-11.446l28.157 1.217c7.76.335 13.534 7.224 12.607 14.935-3.814 31.712-15.66 61.86-34.658 87.928-19.601 26.896-45.694 47.8-76.041 61.05-7.036 3.072-15.199-.581-17.738-7.827z"
                            fill="#ffaf40" data-original="#ffaf40" class=""></path>
                    </g>
                    <g>
                        <path
                            d="m364.681 187.146c-3.82 31.712-15.663 61.867-34.663 87.932-19.598 26.893-45.695 47.802-76.039 61.047-7.041 3.074-15.196-.582-17.737-7.828l-3.795-10.819c48.654-3.221 87.12-43.712 87.12-93.186 0-14.729-3.41-28.663-9.492-41.056.041-.262.082-.533.115-.795.91-6.787 6.877-11.737 13.721-11.442l28.163 1.213c7.755.337 13.533 7.23 12.607 14.934z"
                            fill="#ff993a" data-original="#ff993a" class=""></path>
                    </g>
                    <g>
                        <path
                            d="m489.182 301.702c2.262-6.455-.731-13.611-6.958-16.441-20.705-9.409-38.518-23.89-51.983-42.367-13.099-17.973-21.401-38.671-24.332-60.451-.913-6.788-6.879-11.742-13.722-11.446l-28.157 1.217c-7.76.335-13.534 7.224-12.607 14.935 3.814 31.712 15.66 61.86 34.658 87.928 19.601 26.896 45.694 47.8 76.041 61.05 7.036 3.072 15.199-.581 17.738-7.827z"
                            fill="#ffaf40" data-original="#ffaf40" class=""></path>
                    </g>
                    <g>
                        <path
                            d="m489.185 301.7-9.328 26.598c-1.77 5.049-6.262 8.352-11.213 8.852-3.582-53.851-48.113-96.489-102.726-97.071-7.401-16.795-12.295-34.605-14.5-52.933-.926-7.705 4.852-14.598 12.606-14.934l28.163-1.213c6.844-.295 12.811 4.656 13.721 11.442 2.934 21.786 11.237 42.482 24.335 60.449 13.459 18.483 31.278 32.966 51.982 42.368 6.223 2.836 9.223 9.992 6.96 16.442z"
                            fill="#ff993a" data-original="#ff993a" class=""></path>
                    </g>
                </g>
                <g>
                    <g>
                        <path
                            d="m423.387 224.276-30.02-10.568c-10.53-3.707-17.575-13.656-17.575-24.819v-31.271c0-11.164 7.045-21.112 17.575-24.819l30.02-10.568c17.116-6.025 35.049 6.674 35.049 24.819v52.407c0 18.145-17.933 30.844-35.049 24.819z"
                            fill="#ff993a" data-original="#ff993a" class=""></path>
                        <path
                            d="m292.711 224.274 30.02-10.568c10.53-3.707 17.575-13.655 17.575-24.819v-31.271c0-11.164-7.045-21.112-17.575-24.819l-30.02-10.568c-17.115-6.025-35.049 6.674-35.049 24.819v52.407c0 18.145 17.933 30.844 35.049 24.819z"
                            fill="#ff993a" data-original="#ff993a" class=""></path>
                        <path
                            d="m340.3 157.621v31.259c0 11.174-7.034 21.12-17.577 24.821l-30.013 10.577c-16.401 5.771-33.557-5.666-34.942-22.594 2.859.526 5.806.789 8.823.789 27.768 0 50.291-22.523 50.292-50.291 0-8.49-2.105-16.489-5.824-23.488l11.665 4.105c10.542 3.702 17.576 13.648 17.576 24.822z"
                            fill="#f97c15" data-original="#f97c15" class=""></path>
                    </g>
                    <path
                        d="m365.348 215.706h-14.598c-12.607 0-22.827-10.22-22.827-22.827v-39.252c0-12.607 10.22-22.827 22.828-22.827h14.598c12.607 0 22.827 10.22 22.827 22.827v39.252c-.001 12.607-10.221 22.827-22.828 22.827z"
                        fill="#ffe059" data-original="#ffe059" class=""></path>
                    <path
                        d="m458.441 147.045v52.414c0 18.138-17.945 30.838-35.048 24.821l-30.031-10.578c-3.298-1.158-6.245-2.929-8.753-5.157 1.175.088 2.368.123 3.561.123 30.224 0 54.729-24.505 54.729-54.729 0-12.489-4.192-24.014-11.244-33.223 14.174-.264 26.786 11.121 26.786 26.329z"
                        fill="#f97c15" data-original="#f97c15" class=""></path>
                    <path
                        d="m388.17 164.165v28.715c0 12.612-10.209 22.821-22.822 22.821h-14.594c-12.612 0-22.839-10.209-22.839-22.822v-1.035c5.438 2.368 11.437 3.684 17.752 3.684 19.998 0 36.908-13.208 42.503-31.363z"
                        fill="#ffc751" data-original="#ffc751" class=""></path>
                </g>
                <path
                    d="m512 166.935v34.956c0 6.516-5.288 11.804-11.804 11.804h-43.423c21.058-6.618 36.325-26.292 36.325-49.53 0-3.085-.268-6.099-.787-9.034h7.885c6.516 0 11.804 5.288 11.804 11.804z"
                    fill="#ffaf40" data-original="#ffaf40" class=""></path>
                <path
                    d="m328.771 354.879v-55.93c0-9.922 8.044-17.966 17.966-17.966 9.922 0 17.966 8.044 17.966 17.966v55.93c0 9.922-8.044 17.966-17.966 17.966-9.922-.001-17.966-8.044-17.966-17.966z"
                    fill="#ffe059" data-original="#ffe059" class=""></path>
                <path
                    d="m54.668 155.285h55.93c9.922 0 17.966 8.044 17.966 17.966 0 9.922-8.044 17.966-17.966 17.966h-55.93c-9.922 0-17.966-8.044-17.966-17.966 0-9.923 8.043-17.966 17.966-17.966z"
                    fill="#ffe059" data-original="#ffe059" class=""></path>
                <path
                    d="m54.668 75.755h105.93c9.922 0 17.966 8.044 17.966 17.966 0 9.922-8.044 17.966-17.966 17.966h-105.93c-9.922 0-17.966-8.044-17.966-17.966 0-9.922 8.043-17.966 17.966-17.966z"
                    fill="#fc709b" data-original="#fc709b"></path>
                <circle cx="281.401" cy="144.476" fill="#ffc751" r="15.781" data-original="#ffc751" class=""></circle>
                <circle cx="209.338" cy="92.584" fill="#fc709b" r="16.829" data-original="#fc709b"></circle>
            </g>
            <path
                d="m178.265 400.008h-126.563c-8.284 0-15-6.716-15-15v-51.652c0-8.284 6.716-15 15-15h126.563c8.284 0 15 6.716 15 15v51.652c0 8.284-6.716 15-15 15z"
                fill="#eefdff" data-original="#eefdff"></path>
            <path
                d="m193.27 333.36v51.65c0 8.28-6.72 15-15 15h-126.57c-8.28 0-15-6.72-15-15v-7.32c10.55 3.2 21.74 4.91 33.33 4.91 45.32 0 84.51-26.18 103.29-64.24h4.95c8.28 0 15 6.71 15 15z"
                fill="#b6f0ff" data-original="#b6f0ff"></path>
            <g>
                <path
                    d="m71.312 298.754h-17.436c-9.485 0-17.174-7.689-17.174-17.174 0-9.485 7.689-17.174 17.174-17.174h17.437c9.485 0 17.174 7.689 17.174 17.174-.001 9.485-7.69 17.174-17.175 17.174z"
                    fill="#ffe059" data-original="#ffe059" class=""></path>
            </g>
        </g>
    </g>
</svg>