<svg xmlns="http://www.w3.org/2000/svg" version="1.1" xmlns:xlink="http://www.w3.org/1999/xlink"
    xmlns:svgjs="http://svgjs.com/svgjs" width="100" height="100" x="0" y="0" viewBox="0 0 512 512"
    style="enable-background:new 0 0 512 512" xml:space="preserve" class="">
    <g>
        <g id="_x30_3_x2C__Birthday_x2C__christmas_x2C__gift_x2C__present_x2C__presents_x2C__surprise">
            <g id="XMLID_24867_">
                <g id="XMLID_24868_">
                    <path id="XMLID_24892_"
                        d="m417.538 431.385v46.153h-138.461l-9.231-23.076 9.231-23.077 69.231-9.231z" fill="#ff9100"
                        data-original="#ff9100"></path>
                    <path id="XMLID_24891_"
                        d="m223.692 431.385 9.231 23.077-9.231 23.076h-138.461v-46.153l73.846-9.231z" fill="#ff9100"
                        data-original="#ff9100"></path>
                    <path id="XMLID_24890_"
                        d="m417.538 237.538v193.847h-138.461l-9.231-104.776 9.231-89.071 69.231-9.23z" fill="#fdbf00"
                        data-original="#fdbf00" class=""></path>
                    <path id="XMLID_24889_"
                        d="m223.692 237.538 9.231 92.308-9.231 101.539h-138.461v-193.847l68.399-9.23z" fill="#fdbf00"
                        data-original="#fdbf00" class=""></path>
                    <path id="XMLID_24886_"
                        d="m472.923 440.615c10.2 0 18.462 8.262 18.462 18.462 0 10.191-8.262 18.462-18.462 18.462-10.191 0-18.462-8.271-18.462-18.462.001-10.2 8.271-18.462 18.462-18.462z"
                        fill="#fc6dae" data-original="#fc6dae"></path>
                    <path id="XMLID_24883_"
                        d="m449.846 99.077c7.652 0 13.846 6.194 13.846 13.846 0 7.643-6.194 13.846-13.846 13.846-7.643 0-13.846-6.203-13.846-13.846 0-7.652 6.203-13.846 13.846-13.846z"
                        fill="#8e4fd2" data-original="#8e4fd2"></path>
                    <path id="XMLID_24880_"
                        d="m385.231 34.462c7.652 0 13.846 6.194 13.846 13.846 0 7.643-6.194 13.846-13.846 13.846-7.643 0-13.846-6.203-13.846-13.846 0-7.653 6.203-13.846 13.846-13.846z"
                        fill="#0f9be8" data-original="#0f9be8"></path>
                    <path id="XMLID_24877_"
                        d="m57.538 71.385c10.2 0 18.462 8.262 18.462 18.462 0 10.191-8.262 18.462-18.462 18.462-10.191 0-18.462-8.271-18.462-18.462.001-10.201 8.272-18.462 18.462-18.462z"
                        fill="#90e36a" data-original="#90e36a"></path>
                    <path id="XMLID_24874_"
                        d="m34.462 394.462c7.652 0 13.846 6.194 13.846 13.846 0 7.643-6.194 13.846-13.846 13.846-7.643 0-13.846-6.203-13.846-13.846-.001-7.653 6.202-13.846 13.846-13.846z"
                        fill="#00cc76" data-original="#00cc76"></path>
                    <path id="XMLID_24873_"
                        d="m251.385 163.692-50.575-63.083c6.471-28.514 25.302-52.329 50.575-65.511 25.283 13.182 44.114 36.997 50.585 65.511z"
                        fill="#d21463" data-original="#d21463"></path>
                    <path id="XMLID_24872_"
                        d="m301.969 100.618v-.009c11.912-2.655 15.579-1.076 87.877-1.532 0 35.686-28.929 64.615-64.615 64.615h-73.846c0-30.117 20.795-56.386 50.584-63.074z"
                        fill="#f73d7f" data-original="#f73d7f"></path>
                    <path id="XMLID_24871_"
                        d="m251.385 163.692h-73.846c-35.686 0-64.615-28.929-64.615-64.615 73.789.466 76.019-1.107 87.886 1.532v.009c29.23 6.562 50.575 32.425 50.575 63.074z"
                        fill="#fc6dae" data-original="#fc6dae"></path>
                    <path id="XMLID_24870_" d="m279.077 431.385v46.153h-55.385v-46.153-193.847l27.693-9.23 27.692 9.23z"
                        fill="#e4ebf8" data-original="#e4ebf8"></path>
                    <path id="XMLID_24869_" d="m454.462 163.692v73.846c-17.651 0-388.052 0-406.154 0v-73.846z"
                        fill="#ffda2d" data-original="#ffda2d" class=""></path>
                </g>
            </g>
            <g id="XMLID_24649_">
                <g id="XMLID_24650_">
                    <path id="XMLID_24674_"
                        d="m417.538 431.385v46.153h-138.461l-9.231-23.076 9.231-23.077 69.231-9.231z" fill="#ff9100"
                        data-original="#ff9100"></path>
                    <path id="XMLID_24673_"
                        d="m223.692 431.385 9.231 23.077-9.231 23.076h-138.461v-46.153l73.846-9.231z" fill="#ff9100"
                        data-original="#ff9100"></path>
                    <path id="XMLID_24672_"
                        d="m417.538 237.538v193.847h-138.461l-9.231-104.776 9.231-89.071 69.231-9.23z" fill="#fdbf00"
                        data-original="#fdbf00" class=""></path>
                    <path id="XMLID_24671_"
                        d="m223.692 237.538 9.231 92.308-9.231 101.539h-138.461v-193.847l68.399-9.23z" fill="#fdbf00"
                        data-original="#fdbf00" class=""></path>
                    <path id="XMLID_24668_"
                        d="m472.923 440.615c10.2 0 18.462 8.262 18.462 18.462 0 10.191-8.262 18.462-18.462 18.462-10.191 0-18.462-8.271-18.462-18.462.001-10.2 8.271-18.462 18.462-18.462z"
                        fill="#fc6dae" data-original="#fc6dae"></path>
                    <path id="XMLID_24665_"
                        d="m449.846 99.077c7.652 0 13.846 6.194 13.846 13.846 0 7.643-6.194 13.846-13.846 13.846-7.643 0-13.846-6.203-13.846-13.846 0-7.652 6.203-13.846 13.846-13.846z"
                        fill="#8e4fd2" data-original="#8e4fd2"></path>
                    <path id="XMLID_24662_"
                        d="m385.231 34.462c7.652 0 13.846 6.194 13.846 13.846 0 7.643-6.194 13.846-13.846 13.846-7.643 0-13.846-6.203-13.846-13.846 0-7.653 6.203-13.846 13.846-13.846z"
                        fill="#0f9be8" data-original="#0f9be8"></path>
                    <path id="XMLID_24659_"
                        d="m57.538 71.385c10.2 0 18.462 8.262 18.462 18.462 0 10.191-8.262 18.462-18.462 18.462-10.191 0-18.462-8.271-18.462-18.462.001-10.201 8.272-18.462 18.462-18.462z"
                        fill="#90e36a" data-original="#90e36a"></path>
                    <path id="XMLID_24656_"
                        d="m34.462 394.462c7.652 0 13.846 6.194 13.846 13.846 0 7.643-6.194 13.846-13.846 13.846-7.643 0-13.846-6.203-13.846-13.846-.001-7.653 6.202-13.846 13.846-13.846z"
                        fill="#00cc76" data-original="#00cc76"></path>
                    <path id="XMLID_24655_"
                        d="m251.385 163.692-50.575-63.083c6.471-28.514 25.302-52.329 50.575-65.511 25.283 13.182 44.114 36.997 50.585 65.511z"
                        fill="#d21463" data-original="#d21463"></path>
                    <path id="XMLID_24654_"
                        d="m301.969 100.618v-.009c11.912-2.655 15.579-1.076 87.877-1.532 0 35.686-28.929 64.615-64.615 64.615h-73.846c0-30.117 20.795-56.386 50.584-63.074z"
                        fill="#f73d7f" data-original="#f73d7f"></path>
                    <path id="XMLID_24653_"
                        d="m251.385 163.692h-73.846c-35.686 0-64.615-28.929-64.615-64.615 73.789.466 76.019-1.107 87.886 1.532v.009c29.23 6.562 50.575 32.425 50.575 63.074z"
                        fill="#fc6dae" data-original="#fc6dae"></path>
                    <path id="XMLID_24652_" d="m279.077 431.385v46.153h-55.385v-46.153-193.847l27.693-9.23 27.692 9.23z"
                        fill="#e4ebf8" data-original="#e4ebf8"></path>
                    <path id="XMLID_24651_" d="m454.462 163.692v73.846c-17.651 0-388.052 0-406.154 0v-73.846z"
                        fill="#ffda2d" data-original="#ffda2d" class=""></path>
                </g>
            </g>
        </g>
    </g>
</svg>