<svg xmlns="http://www.w3.org/2000/svg" version="1.1" xmlns:xlink="http://www.w3.org/1999/xlink"
	xmlns:svgjs="http://svgjs.com/svgjs" width="100" height="100" x="0" y="0" viewBox="0 0 512 512"
	style="enable-background:new 0 0 512 512" xml:space="preserve" class="">
	<g>
		<g>
			<path style="" d="M61.887,410.25c8.631,0,16.583,3.967,21.816,10.885l0.366,0.483l0.598-0.1
		c1.126-0.19,2.146-0.281,3.118-0.281c2.802,0,5.502,0.605,8.025,1.799l0.973,0.46l0.388-1.004
		c3.949-10.225,13.958-17.095,24.907-17.095c13.186,0,24.543,9.834,26.419,22.875l0.102,0.704l0.698,0.136
		c7.024,1.363,12.123,7.552,12.123,14.718c0,1.819-0.355,3.643-1.053,5.421l-0.536,1.366h7.714c2.206,0,4,1.794,4,4v12.133h73.19
		V297.236H41.5v122.141C46.517,413.779,53.796,410.25,61.887,410.25z" fill="#ffb98a" data-original="#ffb98a" class="">
			</path>
			<path style="" d="M243.735,216.278h-38.41c-0.968,0-1.517-0.248-1.617-0.479c-0.101-0.23,0.09-0.802,0.747-1.513
		l61.106-66.05H78.778v97.527h165.957v-28.486C244.735,216.726,244.287,216.278,243.735,216.278z" fill="#ffb98a"
				data-original="#ffb98a" class=""></path>
		</g>
		<rect x="78.78" y="148.24" style="opacity:0.1;enable-background:new    ;" width="25.22" height="97.53"
			fill="#000000" data-original="#000000"></rect>
		<path style="" d="M189,95.699v10.551c0,2.206-1.794,4-4,4h-56c-2.206,0-4-1.794-4-4V95.699H98.289
	c-2.75,0-6.419,1.746-8.154,3.88l-37.781,46.477c-1.735,2.134-0.904,3.88,1.846,3.88h209.79L314.167,95.7H189V95.699z"
			fill="#083e63" data-original="#083e63"></path>
		<g style="opacity:0.1;">
			<path d="M77.834,146.056l37.781-46.477c1.735-2.134,5.404-3.88,8.154-3.88h-25.48c-2.75,0-6.419,1.746-8.154,3.88l-37.781,46.477
		c-1.735,2.134-0.904,3.88,1.846,3.88h25.48C76.93,149.936,76.099,148.189,77.834,146.056z" fill="#000000"
				data-original="#000000"></path>
		</g>
		<path style="opacity:0.1;enable-background:new    ;" d="M61.887,410.25c1.738,0,3.447,0.168,5.113,0.482V297.236H41.5v122.141
	C46.517,413.779,53.796,410.25,61.887,410.25z" fill="#000000" data-original="#000000"></path>
		<path style="" d="M83.703,421.135l0.366,0.483l0.598-0.1c1.126-0.19,2.146-0.281,3.118-0.281
	c2.802,0,5.502,0.605,8.025,1.799l0.453,0.214h0.614l0.293-0.758c1.72-4.453,4.591-8.269,8.187-11.158V344.25c0-2.75-2.25-5-5-5H72
	c-2.75,0-5,2.25-5,5v66.481C73.608,411.975,79.523,415.61,83.703,421.135z" fill="#1dd9dd" data-original="#1dd9dd">
		</path>
		<path style="" d="M61.887,410.25c4.484,0,8.781,1.08,12.613,3.08v-66.58h23.357v69H78.324
	c1.999,1.515,3.813,3.315,5.379,5.385l0.366,0.483l0.598-0.1c1.126-0.19,2.146-0.281,3.118-0.281c2.802,0,5.502,0.605,8.025,1.799
	l0.973,0.46l0.388-1.004c2.796-7.238,8.634-12.78,15.687-15.409V344.25c0-6.893-5.607-12.5-12.5-12.5H72
	c-6.893,0-12.5,5.607-12.5,12.5v66.11C60.287,410.292,61.082,410.25,61.887,410.25z" fill="#775436"
			data-original="#775436"></path>
		<path style="" d="M147.256,423.25h12.035c2.75,0,5-2.25,5-5v-74c0-2.75-2.25-5-5-5h-28.357c-2.75,0-5,2.25-5,5v61.434
	C135.721,407.13,143.98,413.984,147.256,423.25z" fill="#1dd9dd" data-original="#1dd9dd"></path>
		<path style="" d="M122.078,405.397c4.029,0,7.886,0.922,11.355,2.57V346.75h23.357v69h-13.653
	c2.775,3.554,4.685,7.829,5.359,12.523l0.102,0.704l0.698,0.136c1.593,0.309,3.08,0.877,4.438,1.638h5.557
	c6.893,0,12.5-5.607,12.5-12.5v-74c0-6.893-5.607-12.5-12.5-12.5h-28.357c-6.893,0-12.5,5.607-12.5,12.5v61.415
	C119.633,405.497,120.848,405.397,122.078,405.397z" fill="#775436" data-original="#775436"></path>
		<path style="" d="M223,418.25c0,2.75-2.25,5-5,5h-28.357c-2.75,0-5-2.25-5-5v-74c0-2.75,2.25-5,5-5H218
	c2.75,0,5,2.25,5,5V418.25z" fill="#1dd9dd" data-original="#1dd9dd"></path>
		<path style="" d="M218,430.75h-28.357c-6.893,0-12.5-5.607-12.5-12.5v-74c0-6.893,5.607-12.5,12.5-12.5H218
	c6.893,0,12.5,5.607,12.5,12.5v74C230.5,425.143,224.893,430.75,218,430.75z M192.143,415.75H215.5v-69h-23.357V415.75z"
			fill="#775436" data-original="#775436"></path>
		<path style="" d="M72.18,450.617l-0.824-1.485c-1.541-2.777-2.355-5.923-2.355-9.098
	c0-9.476,7.05-17.315,16.174-18.594c-5.125-7.362-13.637-12.19-23.287-12.19c-15.672,0-28.379,12.705-28.379,28.378
	c0,4.683,1.146,9.096,3.156,12.99H72.18V450.617z" fill="#5dc647" data-original="#5dc647"></path>
		<path style="" d="M160.89,450.617c0.971-2.062,1.53-4.356,1.53-6.787c0-7.788-5.565-14.271-12.933-15.7
	c-1.931-13.42-13.465-23.733-27.409-23.733c-11.779,0-21.834,7.361-25.84,17.734c-2.563-1.212-5.429-1.896-8.453-1.896
	c-10.927,0-19.785,8.863-19.785,19.797c0,3.896,1.139,7.521,3.08,10.583h89.81V450.617z" fill="#368c0e"
			data-original="#368c0e"></path>
		<path style="" d="M172.545,466.75v-12.133c0-2.75-2.25-5-5-5H25.056c-2.75,0-5,2.25-5,5v12.133H172.545z"
			fill="#775436" data-original="#775436"></path>
		<path style="opacity:0.1;enable-background:new    ;" d="M45.511,466.75v-12.133c0-2.75,2.25-5,5-5H25.056c-2.75,0-5,2.25-5,5
	v12.133H45.511z" fill="#000000" data-original="#000000"></path>
		<path style="" d="M244.735,244.014H56.59c-2.75,0-6.419,1.746-8.154,3.88L10.654,294.37
	c-1.735,2.134-0.904,3.88,1.846,3.88h232.235V244.014z" fill="#046699" data-original="#046699" class=""></path>
		<g style="opacity:0.1;">
			<path d="M35.834,294.37l37.781-46.476c1.735-2.134,5.404-3.88,8.154-3.88H56.59c-2.75,0-6.419,1.746-8.154,3.88L10.654,294.37
		c-1.735,2.134-0.904,3.88,1.846,3.88h25.18C34.93,298.25,34.099,296.504,35.834,294.37z" fill="#000000"
				data-original="#000000"></path>
		</g>
		<path style="" d="M498.323,213.607L354.417,58.061c-1.867-2.019-4.924-2.019-6.791,0L203.721,213.607
	c-1.867,2.019-1.146,3.67,1.604,3.67h39.41v-0.668l106.286-114.885L457.31,216.609v0.668h39.408
	C499.469,217.278,500.19,215.626,498.323,213.607z" fill="#046699" data-original="#046699" class=""></path>
		<path style=""
			d="M447.134,466.75v-43.283h-34.317c-0.943,0-1.647-0.281-1.931-0.772
	c-0.283-0.491-0.175-1.241,0.297-2.058l22.808-39.503h-9.476c-0.944,0-1.647-0.281-1.931-0.772c-0.283-0.49-0.175-1.241,0.297-2.058
	l19.885-34.443h-8.229c-0.943,0-1.647-0.281-1.931-0.772c-0.283-0.491-0.175-1.241,0.297-2.058l22.578-39.108
	c0.472-0.817,1.067-1.286,1.634-1.286c0.403,0,0.819,0.247,1.196,0.678v-85.097L351.022,100.252L243.735,216.218V466.75H447.134z"
			fill="#ffd5b3" data-original="#ffd5b3"></path>
		<rect x="446.13" y="423.47" style="" width="21.961" height="43.28" fill="#775436" data-original="#775436">
		</rect>
		<polygon style="opacity:0.1;enable-background:new    ;" points="269,466.75 269,216.218 363.654,113.906 351.022,100.252 
	243.735,216.218 243.735,466.75 " fill="#000000" data-original="#000000"></polygon>
		<path style="" d="M390.281,466.75V344.848c0-2.75-2.25-5-5-5h-68.518c-2.75,0-5,2.25-5,5V466.75H390.281z"
			fill="#b2762f" data-original="#b2762f"></path>
		<path style="opacity:0.1;enable-background:new    ;" d="M337,466.75V344.848c0-2.75,2.25-5,5-5h-25.236c-2.75,0-5,2.25-5,5V466.75
	H337z" fill="#000000" data-original="#000000"></path>
		<path style="" d="M328.5,427.779c-4.143,0-7.5-3.358-7.5-7.5v-16.396c0-4.142,3.357-7.5,7.5-7.5s7.5,3.358,7.5,7.5
	v16.396C336,424.421,332.643,427.779,328.5,427.779z" fill="#775436" data-original="#775436"></path>
		<path style="" d="M385.281,274.848V205.25c0-2.75-2.25-5-5-5h-58.518c-2.75,0-5,2.25-5,5v69.598H385.281z"
			fill="#1dd9dd" data-original="#1dd9dd"></path>
		<path style="opacity:0.1;enable-background:new    ;" d="M342,274.848V205.25c0-2.75,2.25-5,5-5h-25.236c-2.75,0-5,2.25-5,5v69.598
	H342z" fill="#000000" data-original="#000000"></path>
		<g>
			<path style="" d="M324.264,274.848V207.75h53.518v67.098h15V205.25c0-6.893-5.608-12.5-12.5-12.5h-58.518
		c-6.893,0-12.5,5.607-12.5,12.5v69.598H324.264z" fill="#775436" data-original="#775436"></path>
			<path style="" d="M402.281,292.25c0,2.75-2.25,5-5,5h-92.518c-2.75,0-5-2.25-5-5v-13.402c0-2.75,2.25-5,5-5h92.518
		c2.75,0,5,2.25,5,5V292.25z" fill="#775436" data-original="#775436"></path>
		</g>
		<g style="opacity:0.1;">
			<path d="M325,292.25v-13.402c0-2.75,2.25-5,5-5h-25.236c-2.75,0-5,2.25-5,5v13.402c0,2.75,2.25,5,5,5H330
		C327.25,297.25,325,295,325,292.25z" fill="#000000" data-original="#000000"></path>
		</g>
		<path style="" d="M124,60.25v46c0,2.75,2.25,5,5,5h56c2.75,0,5-2.25,5-5v-46H124z" fill="#c6a07d"
			data-original="#c6a07d"></path>
		<path style="opacity:0.1;enable-background:new    ;" d="M149,106.25v-46h-25v46c0,2.75,2.25,5,5,5h25
	C151.25,111.25,149,109,149,106.25z" fill="#000000" data-original="#000000"></path>
		<path style="" d="M202,56.25c0,2.75-2.25,5-5,5h-80c-2.75,0-5-2.25-5-5v-20c0-2.75,2.25-5,5-5h80c2.75,0,5,2.25,5,5
	V56.25z" fill="#775436" data-original="#775436"></path>
		<g style="opacity:0.1;">
			<path
				d="M137,56.25v-20c0-2.75,2.25-5,5-5h-25c-2.75,0-5,2.25-5,5v20c0,2.75,2.25,5,5,5h25C139.25,61.25,137,59,137,56.25z"
				fill="#000000" data-original="#000000"></path>
		</g>
		<rect x="78.78" y="174.25" style="" width="66.864" height="43" fill="#1dd9dd" data-original="#1dd9dd"></rect>
		<g style="opacity:0.1;">
			<rect x="78.78" y="174.25" width="25.22" height="43" fill="#000000" data-original="#000000"></rect>
		</g>
		<path style="" d="M174,174.25h-28.357v43H174c2.75,0,5-2.25,5-5v-33C179,176.5,176.75,174.25,174,174.25z"
			fill="#a2f9f9" data-original="#a2f9f9"></path>
		<path style="" d="M174,166.75H78.778v15h59.364v28H78.778v15H174c6.893,0,12.5-5.607,12.5-12.5v-33
	C186.5,172.357,180.893,166.75,174,166.75z M171.5,209.75h-18.357v-28H171.5V209.75z" fill="#775436"
			data-original="#775436"></path>
		<path style="" d="M503.913,420.137L481.316,381h-48.404l-22.596,39.137c-1.375,2.381-0.25,4.33,2.5,4.33h88.597
	C504.163,424.467,505.288,422.519,503.913,420.137z" fill="#368c0e" data-original="#368c0e"></path>
		<g style="opacity:0.1;">
			<path d="M435.587,420.137L458.183,381h-25.27l-22.596,39.137c-1.375,2.381-0.25,4.33,2.5,4.33h25.271
		C435.337,424.467,434.212,422.519,435.587,420.137z" fill="#000000" data-original="#000000"></path>
		</g>
		<path style="" d="M492.214,377.804l-19.964-34.58h-30.272l-19.964,34.58c-1.375,2.382-0.25,4.33,2.5,4.33h65.199
	C492.464,382.134,493.589,380.185,492.214,377.804z" fill="#5dc647" data-original="#5dc647"></path>
		<path style="opacity:0.1;enable-background:new    ;" d="M447.285,377.804l19.965-34.58h-25.272l-19.964,34.58
	c-1.375,2.382-0.25,4.33,2.5,4.33h25.271C447.035,382.134,445.91,380.185,447.285,377.804z" fill="#000000"
			data-original="#000000"></path>
		<path style="" d="M434.536,344.861c-2.75,0-3.875-1.949-2.5-4.33l22.578-39.108c1.375-2.381,3.625-2.381,5,0
	l22.578,39.108c1.375,2.381,0.25,4.33-2.5,4.33H434.536z" fill="#368c0e" data-original="#368c0e"></path>
		<g style="opacity:0.1;">
			<path d="M457.307,340.531l12.443-21.552l-10.136-17.556c-1.375-2.381-3.625-2.381-5,0l-22.578,39.108
		c-1.375,2.381-0.25,4.33,2.5,4.33h25.271C457.057,344.861,455.932,342.912,457.307,340.531z" fill="#000000"
				data-original="#000000"></path>
		</g>
		<path style="" d="M504.5,480.75H7.5c-4.143,0-7.5-3.358-7.5-7.5s3.357-7.5,7.5-7.5h497c4.143,0,7.5,3.358,7.5,7.5
	S508.643,480.75,504.5,480.75z" fill="#d19546" data-original="#d19546"></path>
		<g>
		</g>
		<g>
		</g>
		<g>
		</g>
		<g>
		</g>
		<g>
		</g>
		<g>
		</g>
		<g>
		</g>
		<g>
		</g>
		<g>
		</g>
		<g>
		</g>
		<g>
		</g>
		<g>
		</g>
		<g>
		</g>
		<g>
		</g>
		<g>
		</g>
	</g>
</svg>